<?xml version="1.0" encoding="UTF-8" standalone="no"?>
<!-- Created with Inkscape (http://www.inkscape.org/) -->

<svg
   xmlns:dc="http://purl.org/dc/elements/1.1/"
   xmlns:cc="http://creativecommons.org/ns#"
   xmlns:rdf="http://www.w3.org/1999/02/22-rdf-syntax-ns#"
   xmlns:svg="http://www.w3.org/2000/svg"
   xmlns="http://www.w3.org/2000/svg"
   xmlns:sodipodi="http://sodipodi.sourceforge.net/DTD/sodipodi-0.dtd"
   xmlns:inkscape="http://www.inkscape.org/namespaces/inkscape"
   width="210mm"
   height="297mm"
   viewBox="0 0 210 297"
   version="1.1"
   id="svg3357"
   inkscape:version="0.92.2 5c3e80d, 2017-08-06"
   sodipodi:docname="2mm.svg">
  <defs
     id="defs3351" />
  <sodipodi:namedview
     id="base"
     pagecolor="#ffffff"
     bordercolor="#666666"
     borderopacity="1.0"
     inkscape:pageopacity="0.0"
     inkscape:pageshadow="2"
     inkscape:zoom="0.35"
     inkscape:cx="299.99185"
     inkscape:cy="174.37512"
     inkscape:document-units="mm"
     inkscape:current-layer="layer1"
     showgrid="false"
     inkscape:window-width="956"
     inkscape:window-height="1041"
     inkscape:window-x="960"
     inkscape:window-y="18"
     inkscape:window-maximized="0" />
  <metadata
     id="metadata3354">
    <rdf:RDF>
      <cc:Work
         rdf:about="">
        <dc:format>image/svg+xml</dc:format>
        <dc:type
           rdf:resource="http://purl.org/dc/dcmitype/StillImage" />
        <dc:title />
      </cc:Work>
    </rdf:RDF>
  </metadata>
  <g
     inkscape:label="Layer 1"
     inkscape:groupmode="layer"
     id="layer1">
    <g
       id="g1642"
       transform="rotate(90,115.2396,206.98784)">
      <path
         id="path1188-9-8"
         d="M 12.773125,239.26799 H -2.9182657 v -3.99 H 12.773125 Z m 0,0"
         style="fill:none;stroke:#e3231e;stroke-width:0.00999855;stroke-linecap:butt;stroke-linejoin:miter;stroke-miterlimit:4;stroke-dasharray:none;stroke-opacity:1"
         inkscape:connector-curvature="0" />
      <rect
         y="212.24692"
         x="-13.240856"
         height="53.555332"
         width="35.601765"
         id="rect1391-6-6-2"
         style="fill:none;stroke:#ff0000;stroke-width:0.01;stroke-miterlimit:4;stroke-dasharray:none;stroke-opacity:1" />
      <rect
         transform="scale(-1,1)"
         y="220.19131"
         x="-17.370184"
         height="3.4888322"
         width="25.988832"
         id="rect1391-0-6"
         style="fill:none;stroke:#ff0000;stroke-width:0.01;stroke-miterlimit:4;stroke-dasharray:none;stroke-opacity:1" />
      <path
         inkscape:connector-curvature="0"
         style="fill:none;stroke:#e3231e;stroke-width:0.01001609;stroke-linecap:butt;stroke-linejoin:miter;stroke-miterlimit:4;stroke-dasharray:none;stroke-opacity:1"
         d="m -7.7842937,235.04363 c 0,0.82617 -0.670883,1.49498 -1.495002,1.49498 -0.8261653,0 -1.4949813,-0.66881 -1.4949813,-1.49498 0,-0.8262 0.668816,-1.495 1.4949813,-1.495 0.824119,0 1.495002,0.6688 1.495002,1.495 z m 0,0"
         id="path1143-1-4" />
      <path
         inkscape:connector-curvature="0"
         style="fill:none;stroke:#e3231e;stroke-width:0.01001609;stroke-linecap:butt;stroke-linejoin:miter;stroke-miterlimit:4;stroke-dasharray:none;stroke-opacity:1"
         d="m -7.7842937,249.50056 c 0,0.82617 -0.670883,1.49498 -1.495002,1.49498 -0.8261653,0 -1.4949813,-0.66881 -1.4949813,-1.49498 0,-0.8262 0.668816,-1.495 1.4949813,-1.495 0.824119,0 1.495002,0.6688 1.495002,1.495 z m 0,0"
         id="path1143-2-8" />
      <path
         inkscape:connector-curvature="0"
         style="fill:none;stroke:#e3231e;stroke-width:0.01001609;stroke-linecap:butt;stroke-linejoin:miter;stroke-miterlimit:4;stroke-dasharray:none;stroke-opacity:1"
         d="m 4.4732163,262.03274 c 0,0.82617 -0.670883,1.49498 -1.495001,1.49498 -0.826166,0 -1.494983,-0.66881 -1.494983,-1.49498 0,-0.8262 0.668817,-1.495 1.494983,-1.495 0.824118,0 1.495001,0.6688 1.495001,1.495 z m 0,0"
         id="path1143-7-7" />
      <path
         inkscape:connector-curvature="0"
         style="fill:none;stroke:#e3231e;stroke-width:0.01001609;stroke-linecap:butt;stroke-linejoin:miter;stroke-miterlimit:4;stroke-dasharray:none;stroke-opacity:1"
         d="m 16.756776,262.03275 c 0,0.82617 -0.670882,1.49498 -1.495001,1.49498 -0.826164,0 -1.494981,-0.66881 -1.494981,-1.49498 0,-0.8262 0.668817,-1.495 1.494981,-1.495 0.824119,0 1.495001,0.6688 1.495001,1.495 z m 0,0"
         id="path1143-0-1" />
      <path
         inkscape:connector-curvature="0"
         style="fill:none;stroke:#e3231e;stroke-width:0.01001609;stroke-linecap:butt;stroke-linejoin:miter;stroke-miterlimit:4;stroke-dasharray:none;stroke-opacity:1"
         d="m 21.14125,255.71684 c 0,0.82617 -0.670882,1.49498 -1.495001,1.49498 -0.826164,0 -1.494983,-0.66881 -1.494983,-1.49498 0,-0.8262 0.668819,-1.495 1.494983,-1.495 0.824119,0 1.495001,0.6688 1.495001,1.495 z m 0,0"
         id="path1143-9-7" />
      <path
         inkscape:connector-curvature="0"
         style="fill:none;stroke:#e3231e;stroke-width:0.01001609;stroke-linecap:butt;stroke-linejoin:miter;stroke-miterlimit:4;stroke-dasharray:none;stroke-opacity:1"
         d="m 20.205827,227.13732 c 0,0.82617 -0.670883,1.49498 -1.495002,1.49498 -0.826164,0 -1.494981,-0.66881 -1.494981,-1.49498 0,-0.8262 0.668817,-1.495 1.494981,-1.495 0.824119,0 1.495002,0.6688 1.495002,1.495 z m 0,0"
         id="path1143-3-2" />
      <path
         inkscape:connector-curvature="0"
         style="fill:none;stroke:#e3231e;stroke-width:0.01001609;stroke-linecap:butt;stroke-linejoin:miter;stroke-miterlimit:4;stroke-dasharray:none;stroke-opacity:1"
         d="m 20.205827,216.08152 c 0,0.82617 -0.670883,1.49498 -1.495002,1.49498 -0.826164,0 -1.494981,-0.66881 -1.494981,-1.49498 0,-0.8262 0.668817,-1.495 1.494981,-1.495 0.824119,0 1.495002,0.6688 1.495002,1.495 z m 0,0"
         id="path1143-6-7" />
      <path
         id="path1198-2"
         d="m -0.45469166,216.08152 c 0,0.82617 0.670884,1.49498 1.49500196,1.49498 0.826165,0 1.494982,-0.66881 1.494982,-1.49498 0,-0.8262 -0.668817,-1.495 -1.494982,-1.495 -0.82411796,0 -1.49500196,0.6688 -1.49500196,1.495 z m 0,0"
         style="fill:none;stroke:#e3231e;stroke-width:0.01001609;stroke-linecap:butt;stroke-linejoin:miter;stroke-miterlimit:4;stroke-dasharray:none;stroke-opacity:1"
         inkscape:connector-curvature="0" />
      <rect
         y="246.03743"
         x="1.2294823"
         height="6.1901331"
         width="1.1897348"
         id="rect1225-1"
         style="fill:none;stroke:#ff0000;stroke-width:0.01;stroke-miterlimit:4;stroke-dasharray:none;stroke-opacity:1" />
      <rect
         transform="scale(-1,1)"
         y="246.03596"
         x="-8.6253691"
         height="6.1901331"
         width="1.1897348"
         id="rect1235-0"
         style="fill:none;stroke:#ff0000;stroke-width:0.01;stroke-miterlimit:4;stroke-dasharray:none;stroke-opacity:1" />
    </g>
    <g
       id="g1734"
       transform="rotate(90,157.12815,202.14286)">
      <rect
         y="249.29048"
         x="-3.6057894"
         height="53.555332"
         width="35.601765"
         id="rect1391-6-6-4"
         style="fill:none;stroke:#ff0000;stroke-width:0.01;stroke-miterlimit:4;stroke-dasharray:none;stroke-opacity:1" />
      <path
         inkscape:connector-curvature="0"
         style="fill:none;stroke:#e3231e;stroke-width:0.01001609;stroke-linecap:butt;stroke-linejoin:miter;stroke-miterlimit:4;stroke-dasharray:none;stroke-opacity:1"
         d="m 1.850773,272.0872 c 0,0.82617 -0.670883,1.49498 -1.495002,1.49498 -0.826165,0 -1.4949822,-0.66881 -1.4949822,-1.49498 0,-0.8262 0.6688172,-1.495 1.4949822,-1.495 0.824119,0 1.495002,0.6688 1.495002,1.495 z m 0,0"
         id="path1143-1-1" />
      <path
         inkscape:connector-curvature="0"
         style="fill:none;stroke:#e3231e;stroke-width:0.01001609;stroke-linecap:butt;stroke-linejoin:miter;stroke-miterlimit:4;stroke-dasharray:none;stroke-opacity:1"
         d="m 1.850773,286.54413 c 0,0.82617 -0.670883,1.49498 -1.495002,1.49498 -0.826165,0 -1.4949822,-0.66881 -1.4949822,-1.49498 0,-0.8262 0.6688172,-1.495 1.4949822,-1.495 0.824119,0 1.495002,0.6688 1.495002,1.495 z m 0,0"
         id="path1143-2-1" />
      <path
         inkscape:connector-curvature="0"
         style="fill:none;stroke:#e3231e;stroke-width:0.01001609;stroke-linecap:butt;stroke-linejoin:miter;stroke-miterlimit:4;stroke-dasharray:none;stroke-opacity:1"
         d="m 14.108283,299.07631 c 0,0.82617 -0.670883,1.49498 -1.495002,1.49498 -0.826165,0 -1.494982,-0.66881 -1.494982,-1.49498 0,-0.8262 0.668817,-1.495 1.494982,-1.495 0.824119,0 1.495002,0.6688 1.495002,1.495 z m 0,0"
         id="path1143-7-5" />
      <path
         inkscape:connector-curvature="0"
         style="fill:none;stroke:#e3231e;stroke-width:0.01001609;stroke-linecap:butt;stroke-linejoin:miter;stroke-miterlimit:4;stroke-dasharray:none;stroke-opacity:1"
         d="m 26.391842,299.07632 c 0,0.82617 -0.670882,1.49498 -1.495001,1.49498 -0.826164,0 -1.494981,-0.66881 -1.494981,-1.49498 0,-0.8262 0.668817,-1.495 1.494981,-1.495 0.824119,0 1.495001,0.6688 1.495001,1.495 z m 0,0"
         id="path1143-0-9" />
      <path
         inkscape:connector-curvature="0"
         style="fill:none;stroke:#e3231e;stroke-width:0.01001609;stroke-linecap:butt;stroke-linejoin:miter;stroke-miterlimit:4;stroke-dasharray:none;stroke-opacity:1"
         d="m 30.776316,292.76041 c 0,0.82617 -0.670882,1.49498 -1.495001,1.49498 -0.826164,0 -1.494983,-0.66881 -1.494983,-1.49498 0,-0.8262 0.668819,-1.495 1.494983,-1.495 0.824119,0 1.495001,0.6688 1.495001,1.495 z m 0,0"
         id="path1143-9-77" />
      <path
         inkscape:connector-curvature="0"
         style="fill:none;stroke:#e3231e;stroke-width:0.01001609;stroke-linecap:butt;stroke-linejoin:miter;stroke-miterlimit:4;stroke-dasharray:none;stroke-opacity:1"
         d="m 29.840893,264.18089 c 0,0.82617 -0.670883,1.49498 -1.495002,1.49498 -0.826164,0 -1.494981,-0.66881 -1.494981,-1.49498 0,-0.8262 0.668817,-1.495 1.494981,-1.495 0.824119,0 1.495002,0.6688 1.495002,1.495 z m 0,0"
         id="path1143-3-6" />
      <path
         inkscape:connector-curvature="0"
         style="fill:none;stroke:#e3231e;stroke-width:0.01001609;stroke-linecap:butt;stroke-linejoin:miter;stroke-miterlimit:4;stroke-dasharray:none;stroke-opacity:1"
         d="m 29.840893,253.12509 c 0,0.82617 -0.670883,1.49498 -1.495002,1.49498 -0.826164,0 -1.494981,-0.66881 -1.494981,-1.49498 0,-0.8262 0.668817,-1.495 1.494981,-1.495 0.824119,0 1.495002,0.6688 1.495002,1.495 z m 0,0"
         id="path1143-6-73" />
      <path
         id="path1198-6"
         d="m 9.180375,253.12509 c 0,0.82617 0.670883,1.49498 1.495002,1.49498 0.826165,0 1.494982,-0.66881 1.494982,-1.49498 0,-0.8262 -0.668817,-1.495 -1.494982,-1.495 -0.824119,0 -1.495002,0.6688 -1.495002,1.495 z m 0,0"
         style="fill:none;stroke:#e3231e;stroke-width:0.01001609;stroke-linecap:butt;stroke-linejoin:miter;stroke-miterlimit:4;stroke-dasharray:none;stroke-opacity:1"
         inkscape:connector-curvature="0" />
    </g>
    <rect
       style="fill:none;stroke:#ff0000;stroke-width:0.01;stroke-miterlimit:4;stroke-dasharray:none;stroke-opacity:1"
       id="rect1391-6-6-93"
       width="35.601765"
       height="53.555332"
       x="18.466537"
       y="61.07803" />
    <rect
       style="fill:none;stroke:#ff0000;stroke-width:0.01;stroke-miterlimit:4;stroke-dasharray:none;stroke-opacity:1"
       id="rect1391-0-9"
       width="25.988832"
       height="3.4888325"
       x="-49.077583"
       y="69.02243"
       transform="scale(-1,1)" />
    <path
       id="path1143-1-9"
       d="m 23.9231,83.874745 c 0,0.82617 -0.670883,1.49498 -1.495002,1.49498 -0.826165,0 -1.494982,-0.66881 -1.494982,-1.49498 0,-0.8262 0.668817,-1.495 1.494982,-1.495 0.824119,0 1.495002,0.6688 1.495002,1.495 z m 0,0"
       style="fill:none;stroke:#e3231e;stroke-width:0.01001609;stroke-linecap:butt;stroke-linejoin:miter;stroke-miterlimit:4;stroke-dasharray:none;stroke-opacity:1"
       inkscape:connector-curvature="0" />
    <path
       id="path1143-2-6"
       d="m 23.9231,98.331675 c 0,0.82617 -0.670883,1.49498 -1.495002,1.49498 -0.826165,0 -1.494982,-0.66881 -1.494982,-1.49498 0,-0.8262 0.668817,-1.495 1.494982,-1.495 0.824119,0 1.495002,0.6688 1.495002,1.495 z m 0,0"
       style="fill:none;stroke:#e3231e;stroke-width:0.01001609;stroke-linecap:butt;stroke-linejoin:miter;stroke-miterlimit:4;stroke-dasharray:none;stroke-opacity:1"
       inkscape:connector-curvature="0" />
    <path
       id="path1143-7-3"
       d="m 36.18061,110.86386 c 0,0.82617 -0.670883,1.49498 -1.495002,1.49498 -0.826164,0 -1.494983,-0.66881 -1.494983,-1.49498 0,-0.8262 0.668819,-1.495 1.494983,-1.495 0.824119,0 1.495002,0.6688 1.495002,1.495 z m 0,0"
       style="fill:none;stroke:#e3231e;stroke-width:0.01001609;stroke-linecap:butt;stroke-linejoin:miter;stroke-miterlimit:4;stroke-dasharray:none;stroke-opacity:1"
       inkscape:connector-curvature="0" />
    <path
       id="path1143-0-8"
       d="m 48.464169,110.86387 c 0,0.82617 -0.670883,1.49498 -1.495002,1.49498 -0.826164,0 -1.49498,-0.66881 -1.49498,-1.49498 0,-0.8262 0.668816,-1.495 1.49498,-1.495 0.824119,0 1.495002,0.6688 1.495002,1.495 z m 0,0"
       style="fill:none;stroke:#e3231e;stroke-width:0.01001609;stroke-linecap:butt;stroke-linejoin:miter;stroke-miterlimit:4;stroke-dasharray:none;stroke-opacity:1"
       inkscape:connector-curvature="0" />
    <path
       id="path1143-9-5"
       d="m 52.848643,104.54796 c 0,0.82617 -0.670883,1.49498 -1.495002,1.49498 -0.826164,0 -1.494983,-0.66881 -1.494983,-1.49498 0,-0.8262 0.668819,-1.495 1.494983,-1.495 0.824119,0 1.495002,0.6688 1.495002,1.495 z m 0,0"
       style="fill:none;stroke:#e3231e;stroke-width:0.01001609;stroke-linecap:butt;stroke-linejoin:miter;stroke-miterlimit:4;stroke-dasharray:none;stroke-opacity:1"
       inkscape:connector-curvature="0" />
    <path
       id="path1143-3-61"
       d="m 51.913219,75.968435 c 0,0.82617 -0.670883,1.49498 -1.495002,1.49498 -0.826164,0 -1.49498,-0.66881 -1.49498,-1.49498 0,-0.8262 0.668816,-1.495 1.49498,-1.495 0.824119,0 1.495002,0.6688 1.495002,1.495 z m 0,0"
       style="fill:none;stroke:#e3231e;stroke-width:0.01001609;stroke-linecap:butt;stroke-linejoin:miter;stroke-miterlimit:4;stroke-dasharray:none;stroke-opacity:1"
       inkscape:connector-curvature="0" />
    <path
       id="path1143-6-1"
       d="m 51.913219,64.912635 c 0,0.82617 -0.670883,1.49498 -1.495002,1.49498 -0.826164,0 -1.49498,-0.66881 -1.49498,-1.49498 0,-0.8262 0.668816,-1.495 1.49498,-1.495 0.824119,0 1.495002,0.6688 1.495002,1.495 z m 0,0"
       style="fill:none;stroke:#e3231e;stroke-width:0.01001609;stroke-linecap:butt;stroke-linejoin:miter;stroke-miterlimit:4;stroke-dasharray:none;stroke-opacity:1"
       inkscape:connector-curvature="0" />
    <path
       inkscape:connector-curvature="0"
       style="fill:none;stroke:#e3231e;stroke-width:0.01001609;stroke-linecap:butt;stroke-linejoin:miter;stroke-miterlimit:4;stroke-dasharray:none;stroke-opacity:1"
       d="m 31.252703,64.912635 c 0,0.82617 0.670883,1.49498 1.495002,1.49498 0.826164,0 1.49498,-0.66881 1.49498,-1.49498 0,-0.8262 -0.668816,-1.495 -1.49498,-1.495 -0.824119,0 -1.495002,0.6688 -1.495002,1.495 z m 0,0"
       id="path1198-5" />
    <g
       id="g2477"
       transform="rotate(90,21.089451,63.402819)">
      <path
         id="path2006"
         d="M -13.912263,34.205027 V 54.73971 H 5.9537084 V 47.747883 H 6.9438268 V 45.758349 H 5.9537084 V 45.22143 A 14.244998,14.244997 0 0 1 5.6188438,45.170789 14.244998,14.244997 0 0 1 4.239084,44.818337 14.244998,14.244997 0 0 1 2.9016973,44.329996 14.244998,14.244997 0 0 1 1.6190873,43.710924 14.244998,14.244997 0 0 1 0.40520809,42.966783 14.244998,14.244997 0 0 1 -0.72805523,42.104824 14.244998,14.244997 0 0 1 -1.7698521,41.134332 14.244998,14.244997 0 0 1 -2.7098452,40.064622 14.244998,14.244997 0 0 1 -3.5382186,38.906038 14.244998,14.244997 0 0 1 -4.246704,37.670989 14.244998,14.244997 0 0 1 -4.8280623,36.371303 14.244998,14.244997 0 0 1 -5.2771317,35.01997 14.244998,14.244997 0 0 1 -5.4600646,34.205027 Z"
         style="fill:none;stroke:#ff0000;stroke-width:0.01;stroke-miterlimit:4;stroke-dasharray:none;stroke-opacity:1"
         inkscape:connector-curvature="0" />
      <path
         inkscape:connector-curvature="0"
         style="fill:none;stroke:#e3231e;stroke-width:0.01001609;stroke-linecap:butt;stroke-linejoin:miter;stroke-miterlimit:4;stroke-dasharray:none;stroke-opacity:1"
         d="m -8.455571,38.43812 c 0,0.82617 -0.670883,1.49498 -1.495002,1.49498 -0.826165,0 -1.494982,-0.66881 -1.494982,-1.49498 0,-0.82619 0.668817,-1.49499 1.494982,-1.49499 0.824119,0 1.495002,0.6688 1.495002,1.49499 z m 0,0"
         id="path1143-2-9" />
      <path
         inkscape:connector-curvature="0"
         style="fill:none;stroke:#e3231e;stroke-width:0.01001609;stroke-linecap:butt;stroke-linejoin:miter;stroke-miterlimit:4;stroke-dasharray:none;stroke-opacity:1"
         d="m 3.801939,50.9703 c 0,0.82617 -0.670883,1.49498 -1.495002,1.49498 -0.826165,0 -1.494982,-0.66881 -1.494982,-1.49498 0,-0.82619 0.668817,-1.49499 1.494982,-1.49499 0.824119,0 1.495002,0.6688 1.495002,1.49499 z m 0,0"
         id="path1143-7-2" />
    </g>
    <g
       id="g2472"
       transform="rotate(-90,36.462359,1.3832667)">
      <path
         id="path1987"
         d="m 21.689699,36.42713 a 14.244998,14.244997 0 0 1 -0.120407,0.329697 14.244998,14.244997 0 0 1 -0.619601,1.282092 14.244998,14.244997 0 0 1 -0.744141,1.213882 14.244998,14.244997 0 0 1 -0.861446,1.133766 14.244998,14.244997 0 0 1 -0.971,1.041796 14.244998,14.244997 0 0 1 -1.069702,0.940012 14.244998,14.244997 0 0 1 -1.158068,0.827855 14.244998,14.244997 0 0 1 -1.235067,0.708475 14.244998,14.244997 0 0 1 -1.299663,0.581871 14.244998,14.244997 0 0 1 -1.351338,0.449078 14.244998,14.244997 0 0 1 -1.315683,0.295063 v 0.528664 H 9.9477789 v 1.989005 h 0.9958041 v 6.991324 h 10.746116 z"
         style="fill:none;stroke:#ff0000;stroke-width:0.01;stroke-miterlimit:4;stroke-dasharray:none;stroke-opacity:1"
         inkscape:connector-curvature="0" />
      <path
         inkscape:connector-curvature="0"
         style="fill:none;stroke:#e3231e;stroke-width:0.01001609;stroke-linecap:butt;stroke-linejoin:miter;stroke-miterlimit:4;stroke-dasharray:none;stroke-opacity:1"
         d="m 16.085498,50.97031 c 0,0.82617 -0.670882,1.49499 -1.495001,1.49499 -0.826164,0 -1.494981,-0.66882 -1.494981,-1.49499 0,-0.8262 0.668817,-1.49499 1.494981,-1.49499 0.824119,0 1.495001,0.66879 1.495001,1.49499 z m 0,0"
         id="path1143-0-2" />
      <path
         inkscape:connector-curvature="0"
         style="fill:none;stroke:#e3231e;stroke-width:0.01001609;stroke-linecap:butt;stroke-linejoin:miter;stroke-miterlimit:4;stroke-dasharray:none;stroke-opacity:1"
         d="m 20.469972,44.6544 c 0,0.82618 -0.670882,1.49498 -1.495001,1.49498 -0.826164,0 -1.494983,-0.6688 -1.494983,-1.49498 0,-0.82619 0.668819,-1.495 1.494983,-1.495 0.824119,0 1.495001,0.66881 1.495001,1.495 z m 0,0"
         id="path1143-9-4" />
    </g>
    <g
       id="g2467"
       transform="matrix(-1,0,0,1,31.824499,39.344165)">
      <path
         id="path2014"
         d="m 14.196614,9.1290624 h 2.502175 V 12.617726 H -0.80453569 v 7.783512 a 14.244997,14.244996 0 0 1 0.39842546,-0.349858 14.244997,14.244996 0 0 1 1.158068,-0.828384 14.244997,14.244996 0 0 1 1.23506703,-0.708475 14.244997,14.244996 0 0 1 1.2996624,-0.581872 14.244997,14.244996 0 0 1 1.3513382,-0.449077 14.244997,14.244996 0 0 1 1.3895785,-0.3116 14.244997,14.244996 0 0 1 1.4133512,-0.171555 14.244997,14.244996 0 0 1 1.0076894,-0.03567 14.244997,14.244996 0 0 1 1.4221354,0.0713 14.244997,14.244996 0 0 1 1.4081841,0.212407 14.244997,14.244996 0 0 1 1.379244,0.352425 14.244997,14.244996 0 0 1 1.337902,0.488342 14.244997,14.244996 0 0 1 1.282092,0.619072 14.244997,14.244996 0 0 1 1.213879,0.74467 14.244997,14.244996 0 0 1 1.133266,0.86143 14.244997,14.244996 0 0 1 1.042313,0.970492 14.244997,14.244996 0 0 1 0.939477,1.06971 14.244997,14.244996 0 0 1 0.828373,1.158584 14.244997,14.244996 0 0 1 0.708486,1.235075 14.244997,14.244996 0 0 1 0.545703,1.219041 V 1.184313 h -7.493085 z"
         style="fill:none;stroke:#ff0000;stroke-width:0.01;stroke-miterlimit:4;stroke-dasharray:none;stroke-opacity:1"
         inkscape:connector-curvature="0" />
      <path
         inkscape:connector-curvature="0"
         style="fill:none;stroke:#e3231e;stroke-width:0.01001609;stroke-linecap:butt;stroke-linejoin:miter;stroke-miterlimit:4;stroke-dasharray:none;stroke-opacity:1"
         d="m 19.534549,16.07488 c 0,0.82617 -0.670883,1.49498 -1.495002,1.49498 -0.826164,0 -1.494981,-0.66881 -1.494981,-1.49498 0,-0.8262 0.668817,-1.495 1.494981,-1.495 0.824119,0 1.495002,0.6688 1.495002,1.495 z m 0,0"
         id="path1143-3-7" />
      <path
         inkscape:connector-curvature="0"
         style="fill:none;stroke:#e3231e;stroke-width:0.01001609;stroke-linecap:butt;stroke-linejoin:miter;stroke-miterlimit:4;stroke-dasharray:none;stroke-opacity:1"
         d="m 19.534549,5.01908 c 0,0.82617 -0.670883,1.49498 -1.495002,1.49498 -0.826164,0 -1.494981,-0.66881 -1.494981,-1.49498 0,-0.8262 0.668817,-1.495 1.494981,-1.495 0.824119,0 1.495002,0.6688 1.495002,1.495 z m 0,0"
         id="path1143-6-75" />
    </g>
    <g
       id="g1376"
       transform="rotate(-90,30.341819,34.456397)">
      <path
         inkscape:connector-curvature="0"
         style="fill:none;stroke:#ff0000;stroke-width:0.01;stroke-miterlimit:4;stroke-dasharray:none;stroke-opacity:1"
         d="m 4.74506,38.99877 v 20.53469 h 19.86597 v -6.99183 h 0.99012 V 50.5521 h -0.99012 v -0.53692 a 14.244998,14.244997 0 0 1 -0.33486,-0.0506 14.244998,14.244997 0 0 1 -1.37976,-0.35246 14.244998,14.244997 0 0 1 -1.33739,-0.48834 14.244998,14.244997 0 0 1 -1.28261,-0.61907 14.244998,14.244997 0 0 1 -1.21388,-0.74414 14.244998,14.244997 0 0 1 -1.13326,-0.86196 14.244998,14.244997 0 0 1 -1.0418,-0.97049 14.244998,14.244997 0 0 1 -0.93999,-1.06971 14.244998,14.244997 0 0 1 -0.82838,-1.15859 14.244998,14.244997 0 0 1 -0.70848,-1.23504 14.244998,14.244997 0 0 1 -0.58136,-1.29969 14.244998,14.244997 0 0 1 -0.44907,-1.35133 14.244998,14.244997 0 0 1 -0.18293,-0.81495 z"
         id="path2032" />
      <path
         id="path2041"
         d="m 10.20175,43.23187 c 0,0.82617 -0.67088,1.49498 -1.495,1.49498 -0.82617,0 -1.49498,-0.66881 -1.49498,-1.49498 0,-0.82619 0.66881,-1.49499 1.49498,-1.49499 0.82412,0 1.495,0.6688 1.495,1.49499 z m 0,0"
         style="fill:none;stroke:#e3231e;stroke-width:0.01001609;stroke-linecap:butt;stroke-linejoin:miter;stroke-miterlimit:4;stroke-dasharray:none;stroke-opacity:1"
         inkscape:connector-curvature="0" />
      <path
         id="path2043"
         d="m 22.45926,55.76405 c 0,0.82617 -0.67088,1.49498 -1.495,1.49498 -0.82617,0 -1.49498,-0.66881 -1.49498,-1.49498 0,-0.82619 0.66881,-1.49499 1.49498,-1.49499 0.82412,0 1.495,0.6688 1.495,1.49499 z m 0,0"
         style="fill:none;stroke:#e3231e;stroke-width:0.01001609;stroke-linecap:butt;stroke-linejoin:miter;stroke-miterlimit:4;stroke-dasharray:none;stroke-opacity:1"
         inkscape:connector-curvature="0" />
    </g>
    <g
       id="g1381"
       transform="rotate(90,67.299995,60.248429)">
      <path
         inkscape:connector-curvature="0"
         style="fill:none;stroke:#ff0000;stroke-width:0.01;stroke-miterlimit:4;stroke-dasharray:none;stroke-opacity:1"
         d="m 40.34702,41.22088 a 14.244998,14.244997 0 0 1 -0.12041,0.32969 14.244998,14.244997 0 0 1 -0.6196,1.2821 14.244998,14.244997 0 0 1 -0.74414,1.21388 14.244998,14.244997 0 0 1 -0.86144,1.13376 14.244998,14.244997 0 0 1 -0.971,1.0418 14.244998,14.244997 0 0 1 -1.06971,0.94001 14.244998,14.244997 0 0 1 -1.15806,0.82786 14.244998,14.244997 0 0 1 -1.23507,0.70847 14.244998,14.244997 0 0 1 -1.29966,0.58187 14.244998,14.244997 0 0 1 -1.35134,0.44908 14.244998,14.244997 0 0 1 -1.31568,0.29506 v 0.52867 H 28.6051 v 1.989 h 0.99581 v 6.99133 h 10.74611 z"
         id="path2030" />
      <path
         id="path2045"
         d="m 34.74282,55.76406 c 0,0.82617 -0.67088,1.49499 -1.495,1.49499 -0.82617,0 -1.49498,-0.66882 -1.49498,-1.49499 0,-0.8262 0.66881,-1.49499 1.49498,-1.49499 0.82412,0 1.495,0.66879 1.495,1.49499 z m 0,0"
         style="fill:none;stroke:#e3231e;stroke-width:0.01001609;stroke-linecap:butt;stroke-linejoin:miter;stroke-miterlimit:4;stroke-dasharray:none;stroke-opacity:1"
         inkscape:connector-curvature="0" />
      <path
         id="path2047"
         d="m 39.12729,49.44815 c 0,0.82618 -0.67088,1.49498 -1.495,1.49498 -0.82616,0 -1.49498,-0.6688 -1.49498,-1.49498 0,-0.82619 0.66882,-1.495 1.49498,-1.495 0.82412,0 1.495,0.66881 1.495,1.495 z m 0,0"
         style="fill:none;stroke:#e3231e;stroke-width:0.01001609;stroke-linecap:butt;stroke-linejoin:miter;stroke-miterlimit:4;stroke-dasharray:none;stroke-opacity:1"
         inkscape:connector-curvature="0" />
    </g>
    <g
       id="g1371"
       transform="matrix(1,0,0,-1,-13.611281,56.910915)">
      <path
         inkscape:connector-curvature="0"
         style="fill:none;stroke:#ff0000;stroke-width:0.01;stroke-miterlimit:4;stroke-dasharray:none;stroke-opacity:1"
         d="m 32.85394,13.92281 h 2.50217 v 3.48866 H 17.85279 v 7.78352 a 14.244997,14.244996 0 0 1 0.39842,-0.34986 14.244997,14.244996 0 0 1 1.15807,-0.82839 14.244997,14.244996 0 0 1 1.23507,-0.70847 14.244997,14.244996 0 0 1 1.29966,-0.58187 14.244997,14.244996 0 0 1 1.35134,-0.44908 14.244997,14.244996 0 0 1 1.38958,-0.3116 14.244997,14.244996 0 0 1 1.41335,-0.17156 14.244997,14.244996 0 0 1 1.00769,-0.0357 14.244997,14.244996 0 0 1 1.42213,0.0713 14.244997,14.244996 0 0 1 1.40819,0.21241 14.244997,14.244996 0 0 1 1.37924,0.35243 14.244997,14.244996 0 0 1 1.3379,0.48834 14.244997,14.244996 0 0 1 1.28209,0.61907 14.244997,14.244996 0 0 1 1.21388,0.74467 14.244997,14.244996 0 0 1 1.13327,0.86143 14.244997,14.244996 0 0 1 1.04231,0.97049 14.244997,14.244996 0 0 1 0.93948,1.06971 14.244997,14.244996 0 0 1 0.82837,1.15859 14.244997,14.244996 0 0 1 0.70849,1.23507 14.244997,14.244996 0 0 1 0.5457,1.21904 V 5.97802 h -7.49308 z"
         id="path2035" />
      <path
         id="path2049"
         d="m 38.19187,20.86863 c 0,0.82617 -0.67088,1.49498 -1.495,1.49498 -0.82617,0 -1.49498,-0.66881 -1.49498,-1.49498 0,-0.8262 0.66881,-1.495 1.49498,-1.495 0.82412,0 1.495,0.6688 1.495,1.495 z m 0,0"
         style="fill:none;stroke:#e3231e;stroke-width:0.01001609;stroke-linecap:butt;stroke-linejoin:miter;stroke-miterlimit:4;stroke-dasharray:none;stroke-opacity:1"
         inkscape:connector-curvature="0" />
      <path
         id="path2051"
         d="m 38.19187,9.81283 c 0,0.82617 -0.67088,1.49498 -1.495,1.49498 -0.82617,0 -1.49498,-0.66881 -1.49498,-1.49498 0,-0.8262 0.66881,-1.495 1.49498,-1.495 0.82412,0 1.495,0.6688 1.495,1.495 z m 0,0"
         style="fill:none;stroke:#e3231e;stroke-width:0.01001609;stroke-linecap:butt;stroke-linejoin:miter;stroke-miterlimit:4;stroke-dasharray:none;stroke-opacity:1"
         inkscape:connector-curvature="0" />
    </g>
    <g
       id="g1366"
       transform="matrix(-1,0,0,1,133.82103,8.3738252)">
      <path
         inkscape:connector-curvature="0"
         style="fill:none;stroke:#ff0000;stroke-width:0.01;stroke-miterlimit:4;stroke-dasharray:none;stroke-opacity:1"
         d="M 22.86902,5.97806 H 4.74506 v 27.02989 h 8.11578 V 17.41147 H 9.36752 v -3.48866 h 13.5015 z"
         id="path2037" />
      <path
         id="path2039"
         d="m 10.20175,28.77494 c 0,0.82617 -0.67088,1.49498 -1.495,1.49498 -0.82617,0 -1.49498,-0.66881 -1.49498,-1.49498 0,-0.8262 0.66881,-1.495 1.49498,-1.495 0.82412,0 1.495,0.6688 1.495,1.495 z m 0,0"
         style="fill:none;stroke:#e3231e;stroke-width:0.01001609;stroke-linecap:butt;stroke-linejoin:miter;stroke-miterlimit:4;stroke-dasharray:none;stroke-opacity:1"
         inkscape:connector-curvature="0" />
      <path
         inkscape:connector-curvature="0"
         style="fill:none;stroke:#e3231e;stroke-width:0.01001609;stroke-linecap:butt;stroke-linejoin:miter;stroke-miterlimit:4;stroke-dasharray:none;stroke-opacity:1"
         d="m 17.53135,9.81283 c 0,0.82617 0.67089,1.49498 1.495,1.49498 0.82617,0 1.49499,-0.66881 1.49499,-1.49498 0,-0.8262 -0.66882,-1.495 -1.49499,-1.495 -0.82411,0 -1.495,0.6688 -1.495,1.495 z m 0,0"
         id="path2053" />
    </g>
    <g
       id="g2462"
       transform="matrix(-1,0,0,1,106.00769,22.054285)">
      <path
         id="path2012"
         d="M 4.2116944,1.184313 H -13.912263 v 27.029886 h 8.1157834 V 12.617726 H -9.2898051 V 9.1290624 H 4.2116944 Z"
         style="fill:none;stroke:#ff0000;stroke-width:0.01;stroke-miterlimit:4;stroke-dasharray:none;stroke-opacity:1"
         inkscape:connector-curvature="0" />
      <path
         inkscape:connector-curvature="0"
         style="fill:none;stroke:#e3231e;stroke-width:0.01001609;stroke-linecap:butt;stroke-linejoin:miter;stroke-miterlimit:4;stroke-dasharray:none;stroke-opacity:1"
         d="m -8.455571,23.98119 c 0,0.82617 -0.670883,1.49498 -1.495002,1.49498 -0.826165,0 -1.494982,-0.66881 -1.494982,-1.49498 0,-0.8262 0.668817,-1.495 1.494982,-1.495 0.824119,0 1.495002,0.6688 1.495002,1.495 z m 0,0"
         id="path1143-1-6" />
      <path
         id="path1198-4"
         d="m -1.125969,5.01908 c 0,0.82617 0.670883,1.49498 1.495002,1.49498 0.826165,0 1.494982,-0.66881 1.494982,-1.49498 0,-0.8262 -0.668817,-1.495 -1.494982,-1.495 -0.824119,0 -1.495002,0.6688 -1.495002,1.495 z m 0,0"
         style="fill:none;stroke:#e3231e;stroke-width:0.01001609;stroke-linecap:butt;stroke-linejoin:miter;stroke-miterlimit:4;stroke-dasharray:none;stroke-opacity:1"
         inkscape:connector-curvature="0" />
    </g>
    <g
       id="g2432"
       transform="rotate(90,222.30254,171.89665)">
      <path
         id="path2419"
         transform="scale(0.26458333)"
         d="m 206.28125,1074.7832 v 202.4141 h 115.69531 18.86328 v -69.2129 -39.5352 -93.666 h -28.32031 v 30.0254 h 9.45703 v 13.1855 h -66.15429 v 29.42 a 53.839365,53.839361 0 0 1 1.50585,-1.3243 53.839365,53.839361 0 0 1 4.37696,-3.1308 53.839365,53.839361 0 0 1 4.66992,-2.6778 53.839365,53.839361 0 0 1 4.91211,-2.1972 53.839365,53.839361 0 0 1 5.10547,-1.6973 53.839365,53.839361 0 0 1 5.25195,-1.1797 53.839365,53.839361 0 0 1 5.3418,-0.6484 53.839365,53.839361 0 0 1 3.80859,-0.1348 53.839365,53.839361 0 0 1 5.375,0.2696 53.839365,53.839361 0 0 1 5.32227,0.8046 53.839365,53.839361 0 0 1 5.21484,1.3301 53.839365,53.839361 0 0 1 5.05469,1.8457 53.839365,53.839361 0 0 1 4.8457,2.3418 53.839365,53.839361 0 0 1 4.58789,2.8125 53.839365,53.839361 0 0 1 0.78125,0.5938 v 87.6504 a 53.839365,53.839361 0 0 1 -2.09179,1.4961 53.839365,53.839361 0 0 1 -4.66797,2.6777 53.839365,53.839361 0 0 1 -4.91211,2.1973 53.839365,53.839361 0 0 1 -5.10742,1.6972 53.839365,53.839361 0 0 1 -5.25,1.1797 53.839365,53.839361 0 0 1 -5.34375,0.6485 53.839365,53.839361 0 0 1 -3.8086,0.1347 53.839365,53.839361 0 0 1 -5.375,-0.2695 53.839365,53.839361 0 0 1 -5.32031,-0.8047 53.839365,53.839361 0 0 1 -5.21484,-1.3301 53.839365,53.839361 0 0 1 -5.05469,-1.8457 53.839365,53.839361 0 0 1 -4.8457,-2.3418 53.839365,53.839361 0 0 1 -4.5879,-2.8125 53.839365,53.839361 0 0 1 -4.28515,-3.2578 53.839365,53.839361 0 0 1 -3.9375,-3.668 53.839365,53.839361 0 0 1 -3.55274,-4.0429 53.839365,53.839361 0 0 1 -3.1289,-4.377 53.839365,53.839361 0 0 1 -2.67969,-4.668 53.839365,53.839361 0 0 1 -2.19727,-4.9121 53.839365,53.839361 0 0 1 -1.69726,-5.1074 53.839365,53.839361 0 0 1 -1.17774,-5.2519 53.839365,53.839361 0 0 1 -0.64453,-5.3164 h -0.13867 v -3.834 -70.2696 h -13.20508 v -13.1855 h 51.0293 v -30.0254 z"
         style="fill:none;stroke:#ff0000;stroke-width:0.03779528;stroke-miterlimit:4;stroke-dasharray:none;stroke-opacity:1"
         inkscape:connector-curvature="0" />
      <path
         inkscape:connector-curvature="0"
         style="fill:none;stroke:#e3231e;stroke-width:0.01001609;stroke-linecap:butt;stroke-linejoin:miter;stroke-miterlimit:4;stroke-dasharray:none;stroke-opacity:1"
         d="m 60.035349,307.16632 c 0,0.82617 -0.670883,1.49498 -1.495002,1.49498 -0.826165,0 -1.494982,-0.66881 -1.494982,-1.49498 0,-0.8262 0.668817,-1.495 1.494982,-1.495 0.824119,0 1.495002,0.6688 1.495002,1.495 z m 0,0"
         id="path1143-1-04" />
      <path
         inkscape:connector-curvature="0"
         style="fill:none;stroke:#e3231e;stroke-width:0.01001609;stroke-linecap:butt;stroke-linejoin:miter;stroke-miterlimit:4;stroke-dasharray:none;stroke-opacity:1"
         d="m 60.035349,321.62325 c 0,0.82617 -0.670883,1.49498 -1.495002,1.49498 -0.826165,0 -1.494982,-0.66881 -1.494982,-1.49498 0,-0.8262 0.668817,-1.495 1.494982,-1.495 0.824119,0 1.495002,0.6688 1.495002,1.495 z m 0,0"
         id="path1143-2-80" />
      <path
         inkscape:connector-curvature="0"
         style="fill:none;stroke:#e3231e;stroke-width:0.01001609;stroke-linecap:butt;stroke-linejoin:miter;stroke-miterlimit:4;stroke-dasharray:none;stroke-opacity:1"
         d="m 72.292859,334.15543 c 0,0.82617 -0.670883,1.49498 -1.495002,1.49498 -0.826165,0 -1.494982,-0.66881 -1.494982,-1.49498 0,-0.8262 0.668817,-1.495 1.494982,-1.495 0.824119,0 1.495002,0.6688 1.495002,1.495 z m 0,0"
         id="path1143-7-4" />
      <path
         inkscape:connector-curvature="0"
         style="fill:none;stroke:#e3231e;stroke-width:0.01001609;stroke-linecap:butt;stroke-linejoin:miter;stroke-miterlimit:4;stroke-dasharray:none;stroke-opacity:1"
         d="m 84.576418,334.15544 c 0,0.82617 -0.670882,1.49498 -1.495001,1.49498 -0.826164,0 -1.494981,-0.66881 -1.494981,-1.49498 0,-0.8262 0.668817,-1.495 1.494981,-1.495 0.824119,0 1.495001,0.6688 1.495001,1.495 z m 0,0"
         id="path1143-0-29" />
      <path
         inkscape:connector-curvature="0"
         style="fill:none;stroke:#e3231e;stroke-width:0.01001609;stroke-linecap:butt;stroke-linejoin:miter;stroke-miterlimit:4;stroke-dasharray:none;stroke-opacity:1"
         d="m 88.960892,327.83953 c 0,0.82617 -0.670882,1.49498 -1.495001,1.49498 -0.826164,0 -1.494983,-0.66881 -1.494983,-1.49498 0,-0.8262 0.668819,-1.495 1.494983,-1.495 0.824119,0 1.495001,0.6688 1.495001,1.495 z m 0,0"
         id="path1143-9-6" />
      <path
         inkscape:connector-curvature="0"
         style="fill:none;stroke:#e3231e;stroke-width:0.01001609;stroke-linecap:butt;stroke-linejoin:miter;stroke-miterlimit:4;stroke-dasharray:none;stroke-opacity:1"
         d="m 88.025469,299.26001 c 0,0.82617 -0.670883,1.49498 -1.495002,1.49498 -0.826164,0 -1.494981,-0.66881 -1.494981,-1.49498 0,-0.8262 0.668817,-1.495 1.494981,-1.495 0.824119,0 1.495002,0.6688 1.495002,1.495 z m 0,0"
         id="path1143-3-10" />
      <path
         inkscape:connector-curvature="0"
         style="fill:none;stroke:#e3231e;stroke-width:0.01001609;stroke-linecap:butt;stroke-linejoin:miter;stroke-miterlimit:4;stroke-dasharray:none;stroke-opacity:1"
         d="m 88.025469,288.20421 c 0,0.82617 -0.670883,1.49498 -1.495002,1.49498 -0.826164,0 -1.494981,-0.66881 -1.494981,-1.49498 0,-0.8262 0.668817,-1.495 1.494981,-1.495 0.824119,0 1.495002,0.6688 1.495002,1.495 z m 0,0"
         id="path1143-6-42" />
      <path
         id="path1198-22"
         d="m 67.364951,288.20421 c 0,0.82617 0.670883,1.49498 1.495002,1.49498 0.826165,0 1.494982,-0.66881 1.494982,-1.49498 0,-0.8262 -0.668817,-1.495 -1.494982,-1.495 -0.824119,0 -1.495002,0.6688 -1.495002,1.495 z m 0,0"
         style="fill:none;stroke:#e3231e;stroke-width:0.01001609;stroke-linecap:butt;stroke-linejoin:miter;stroke-miterlimit:4;stroke-dasharray:none;stroke-opacity:1"
         inkscape:connector-curvature="0" />
    </g>
    <circle
       cy="102.35376"
       cx="40.828411"
       id="circle1016"
       style="fill:none;stroke:#ff0000;stroke-width:0.01001955;stroke-miterlimit:4;stroke-dasharray:none;stroke-opacity:1"
       r="0.61999029" />
    <circle
       cy="79.85199"
       cx="40.827198"
       id="circle1016-3"
       style="fill:none;stroke:#ff0000;stroke-width:0.01001955;stroke-miterlimit:4;stroke-dasharray:none;stroke-opacity:1"
       r="0.61999029" />
    <g
       id="g1234"
       transform="translate(33.695612,-0.94472476)">
      <path
         id="path1293"
         d="m 98.018346,40.719373 h 0.992188 v 6.985621 c 10.974596,-1.236691 19.507856,-10.538772 19.507856,-21.846211 0,-11.305471 -8.53326,-20.607454 -19.507856,-21.8441456 v 6.9861376 h -0.992188 v 1.992127 h 0.992188 v 5.825482 c 0.363881,0.128662 0.715115,0.284036 1.051086,0.464056 0.33599,0.180019 0.65659,0.384661 0.95964,0.611333 0.30305,0.226679 0.58859,0.475509 0.85371,0.74414 0.26508,0.26864 0.51011,0.557096 0.73223,0.862997 0.22212,0.305898 0.42119,0.629438 0.59531,0.967899 0.17412,0.33846 0.32332,0.692004 0.44442,1.058333 0.1211,0.366329 0.21445,0.745315 0.27752,1.134814 0.0631,0.389501 0.0956,0.789363 0.0956,1.197343 0,0.517641 -0.0526,1.02294 -0.15245,1.511019 -0.0999,0.48808 -0.24699,0.959176 -0.43667,1.407665 -0.18968,0.448472 -0.42199,0.87447 -0.69144,1.273308 -0.26945,0.398851 -0.576,0.770323 -0.91517,1.109493 -0.39113,0.391102 -0.82864,0.731861 -1.30122,1.022159 -0.4726,0.29028 -0.980251,0.530075 -1.512566,0.718304 v 5.826001 h -0.992188 z"
         style="fill:none;stroke:#e3231e;stroke-width:0.01000111;stroke-linecap:butt;stroke-linejoin:miter;stroke-miterlimit:4;stroke-dasharray:none;stroke-opacity:1"
         inkscape:connector-curvature="0" />
      <path
         id="path1297"
         d="m 106.24881,39.727254 c 0.41203,0.71364 0.16677,1.62897 -0.54877,2.04208 -0.71365,0.41201 -1.62898,0.16674 -2.04101,-0.5469 -0.4131,-0.71552 -0.16785,-1.63084 0.54579,-2.04285 0.71554,-0.41311 1.63088,-0.16785 2.04399,0.54767 z m 0,0"
         style="fill:none;stroke:#e3231e;stroke-width:0.01;stroke-linecap:butt;stroke-linejoin:miter;stroke-miterlimit:4;stroke-dasharray:none;stroke-opacity:1"
         inkscape:connector-curvature="0" />
      <path
         id="path1299"
         d="m 106.24771,11.994304 c -0.41202,0.71365 -1.32737,0.95891 -2.04292,0.5458 -0.71362,-0.41201 -0.95889,-1.32734 -0.54686,-2.04098 0.41311,-0.7155105 1.32845,-0.9607805 2.04208,-0.5487705 0.71554,0.4131105 0.96081,1.3284405 0.5477,2.0439505 z m 0,0"
         style="fill:none;stroke:#e3231e;stroke-width:0.01;stroke-linecap:butt;stroke-linejoin:miter;stroke-miterlimit:4;stroke-dasharray:none;stroke-opacity:1"
         inkscape:connector-curvature="0" />
      <path
         id="path1301"
         d="m 113.38997,27.104973 c -0.68615,0 -1.24409,-0.55795 -1.24409,-1.24592 0,-0.68616 0.55795,-1.24408 1.24409,-1.24408 0.68794,0 1.2459,0.55794 1.2459,1.24408 0,0.68797 -0.55796,1.24592 -1.2459,1.24592 z m 0,0"
         style="fill:none;stroke:#e3231e;stroke-width:0.0100099;stroke-linecap:butt;stroke-linejoin:miter;stroke-miterlimit:4;stroke-dasharray:none;stroke-opacity:1"
         inkscape:connector-curvature="0" />
      <circle
         r="0.61999029"
         style="fill:none;stroke:#ff0000;stroke-width:0.01001955;stroke-miterlimit:4;stroke-dasharray:none;stroke-opacity:1"
         id="circle1016-6"
         cx="106.17232"
         cy="25.860008" />
    </g>
    <g
       id="g1241"
       transform="rotate(-90,73.869099,72.851637)">
      <path
         style="fill:none;stroke:#e3231e;stroke-width:0.01000111;stroke-linecap:butt;stroke-linejoin:miter;stroke-miterlimit:4;stroke-dasharray:none;stroke-opacity:1"
         d="m 118.84224,11.000257 h 0.99218 V 4.0146357 c 10.9746,1.2366916 19.50786,10.5387723 19.50786,21.8462113 0,11.305471 -8.53326,20.607454 -19.50786,21.844146 v -6.986138 h -0.99218 v -1.992127 h 0.99218 v -5.825482 c 0.36389,-0.128662 0.71512,-0.284036 1.05109,-0.464056 0.33599,-0.180019 0.65659,-0.384661 0.95964,-0.611333 0.30305,-0.226679 0.58859,-0.475509 0.85371,-0.74414 0.26508,-0.26864 0.51011,-0.557096 0.73223,-0.862997 0.22212,-0.305898 0.42119,-0.629438 0.59531,-0.967899 0.17412,-0.33846 0.32332,-0.692004 0.44442,-1.058333 0.1211,-0.366329 0.21445,-0.745315 0.27752,-1.134814 0.0631,-0.389501 0.0956,-0.789363 0.0956,-1.197343 0,-0.517641 -0.0526,-1.02294 -0.15245,-1.511019 -0.0999,-0.48808 -0.24699,-0.959176 -0.43667,-1.407665 -0.18968,-0.448472 -0.42199,-0.87447 -0.69144,-1.273308 -0.26945,-0.398851 -0.576,-0.770323 -0.91517,-1.109493 -0.39113,-0.391102 -0.82864,-0.731861 -1.30122,-1.022159 -0.4726,-0.29028 -0.98025,-0.530075 -1.51257,-0.718304 v -5.826001 h -0.99218 z"
         id="path1125"
         inkscape:connector-curvature="0" />
      <path
         inkscape:connector-curvature="0"
         style="fill:none;stroke:#e3231e;stroke-width:0.01;stroke-linecap:butt;stroke-linejoin:miter;stroke-miterlimit:4;stroke-dasharray:none;stroke-opacity:1"
         d="m 127.0727,11.99238 c 0.41203,-0.71364 0.16677,-1.62897 -0.54877,-2.04208 -0.71365,-0.41201 -1.62898,-0.16674 -2.04101,0.5469 -0.4131,0.71552 -0.16785,1.63084 0.54579,2.04285 0.71554,0.41311 1.63088,0.16785 2.04399,-0.54767 z m 0,0"
         id="path1129" />
      <path
         inkscape:connector-curvature="0"
         style="fill:none;stroke:#e3231e;stroke-width:0.01;stroke-linecap:butt;stroke-linejoin:miter;stroke-miterlimit:4;stroke-dasharray:none;stroke-opacity:1"
         d="m 127.0716,39.72533 c -0.41202,-0.71365 -1.32737,-0.95891 -2.04292,-0.5458 -0.71362,0.41201 -0.95889,1.32734 -0.54686,2.04098 0.41311,0.71551 1.32845,0.96078 2.04208,0.54877 0.71554,-0.41311 0.96081,-1.32844 0.5477,-2.04395 z m 0,0"
         id="path1131" />
      <path
         inkscape:connector-curvature="0"
         style="fill:none;stroke:#e3231e;stroke-width:0.0100099;stroke-linecap:butt;stroke-linejoin:miter;stroke-miterlimit:4;stroke-dasharray:none;stroke-opacity:1"
         d="m 134.21386,24.61466 c -0.68615,0 -1.24409,0.55795 -1.24409,1.24592 0,0.68616 0.55795,1.24408 1.24409,1.24408 0.68794,0 1.2459,-0.55794 1.2459,-1.24408 0,-0.68797 -0.55796,-1.24592 -1.2459,-1.24592 z m 0,0"
         id="path1133" />
      <circle
         r="0.61999029"
         style="fill:none;stroke:#ff0000;stroke-width:0.01001955;stroke-miterlimit:4;stroke-dasharray:none;stroke-opacity:1"
         id="circle1016-7"
         cx="126.99621"
         cy="25.859625" />
    </g>
    <g
       id="g1530"
       transform="translate(13.635232,-0.94471476)">
      <path
         id="path1112-3"
         d="m 118.99894,49.52538 c 12.14697,0 21.995,9.84637 21.995,21.99598 0,12.14749 -9.84803,21.99388 -21.995,21.99388 -12.14696,0 -21.995,-9.84639 -21.995,-21.99388 0,-12.14961 9.84804,-21.99598 21.995,-21.99598 z m 0,0"
         style="fill:none;stroke:#e3231e;stroke-width:0.01000111;stroke-linecap:butt;stroke-linejoin:miter;stroke-miterlimit:4;stroke-dasharray:none;stroke-opacity:1"
         inkscape:connector-curvature="0" />
      <circle
         r="1.4949962"
         cy="56.906166"
         cx="110.56895"
         id="path1124-5"
         style="fill:none;stroke:#ff0000;stroke-width:0.0100076;stroke-miterlimit:4;stroke-dasharray:none;stroke-opacity:1" />
      <circle
         r="1.4949962"
         cy="86.134651"
         cx="110.56929"
         id="path1124-56"
         style="fill:none;stroke:#ff0000;stroke-width:0.0100076;stroke-miterlimit:4;stroke-dasharray:none;stroke-opacity:1" />
      <circle
         r="1.4949962"
         cy="86.134529"
         cx="127.44395"
         id="path1124-2"
         style="fill:none;stroke:#ff0000;stroke-width:0.0100076;stroke-miterlimit:4;stroke-dasharray:none;stroke-opacity:1" />
      <circle
         r="1.4949962"
         cy="56.906258"
         cx="127.44431"
         id="path1124-1"
         style="fill:none;stroke:#ff0000;stroke-width:0.0100076;stroke-miterlimit:4;stroke-dasharray:none;stroke-opacity:1" />
      <circle
         r="1.2458302"
         cy="71.520302"
         cx="-135.88159"
         id="circle1465"
         style="fill:none;stroke:#ff0000;stroke-width:0.01;stroke-miterlimit:4;stroke-dasharray:none;stroke-opacity:1"
         transform="scale(-1,1)" />
      <circle
         r="1.2458302"
         cy="71.520302"
         cx="-102.13158"
         id="circle1465-0"
         style="fill:none;stroke:#ff0000;stroke-width:0.01;stroke-miterlimit:4;stroke-dasharray:none;stroke-opacity:1"
         transform="scale(-1,1)" />
    </g>
    <g
       id="g1608"
       transform="translate(13.635232,-0.94471476)">
      <path
         inkscape:connector-curvature="0"
         style="fill:none;stroke:#e3231e;stroke-width:0.01000111;stroke-linecap:butt;stroke-linejoin:miter;stroke-miterlimit:4;stroke-dasharray:none;stroke-opacity:1"
         d="m 157.56714,26.9834 c 12.14697,0 21.995,9.84637 21.995,21.99598 0,12.14749 -9.84803,21.99388 -21.995,21.99388 -12.14696,0 -21.995,-9.84639 -21.995,-21.99388 0,-12.14961 9.84804,-21.99598 21.995,-21.99598 z m 0,0"
         id="path1223" />
      <circle
         style="fill:none;stroke:#ff0000;stroke-width:0.0100076;stroke-miterlimit:4;stroke-dasharray:none;stroke-opacity:1"
         id="circle1225"
         cx="149.13715"
         cy="34.364185"
         r="1.4949962" />
      <circle
         style="fill:none;stroke:#ff0000;stroke-width:0.0100076;stroke-miterlimit:4;stroke-dasharray:none;stroke-opacity:1"
         id="circle1229"
         cx="149.13748"
         cy="63.59267"
         r="1.4949962" />
      <circle
         style="fill:none;stroke:#ff0000;stroke-width:0.0100076;stroke-miterlimit:4;stroke-dasharray:none;stroke-opacity:1"
         id="circle1231"
         cx="166.01215"
         cy="63.59267"
         r="1.4949962" />
      <circle
         style="fill:none;stroke:#ff0000;stroke-width:0.0100076;stroke-miterlimit:4;stroke-dasharray:none;stroke-opacity:1"
         id="circle1235"
         cx="166.0125"
         cy="34.364185"
         r="1.4949962" />
      <g
         id="text1154"
         style="font-style:normal;font-weight:normal;font-size:2.74346948px;line-height:1.25;font-family:sans-serif;letter-spacing:0px;word-spacing:0px;fill:#0000ff;fill-opacity:1;stroke:none;stroke-width:0.06858674"
         aria-label="IN">
        <path
           id="path1243"
           style="font-style:normal;font-variant:normal;font-weight:bold;font-stretch:normal;font-family:sans-serif;-inkscape-font-specification:'sans-serif Bold';fill:#0000ff;fill-opacity:1;stroke-width:0.06858674"
           d="m 156.15924,66.978264 h 0.51574 v 2 h -0.51574 z"
           inkscape:connector-curvature="0" />
        <path
           id="path1245"
           style="font-style:normal;font-variant:normal;font-weight:bold;font-stretch:normal;font-family:sans-serif;-inkscape-font-specification:'sans-serif Bold';fill:#0000ff;fill-opacity:1;stroke-width:0.06858674"
           d="m 157.18268,66.978264 h 0.57602 l 0.72739,1.371735 v -1.371735 h 0.48895 v 2 h -0.57602 l -0.72739,-1.371735 v 1.371735 h -0.48895 z"
           inkscape:connector-curvature="0" />
      </g>
      <g
         id="text1160"
         style="font-style:normal;font-weight:normal;font-size:2.64428663px;line-height:1.25;font-family:sans-serif;letter-spacing:0px;word-spacing:0px;fill:#0000ff;fill-opacity:1;stroke:none;stroke-width:0.06610716"
         transform="scale(-1)"
         aria-label="OUT">
        <path
           id="path1248"
           style="font-style:normal;font-variant:normal;font-weight:bold;font-stretch:normal;font-family:sans-serif;-inkscape-font-specification:'sans-serif Bold';fill:#0000ff;fill-opacity:1;stroke-width:0.06610716"
           d="m -159.23869,-30.628169 q -0.22725,0 -0.35249,0.167851 -0.12524,0.16785 -0.12524,0.472563 0,0.303421 0.12524,0.471271 0.12524,0.167851 0.35249,0.167851 0.22853,0 0.35377,-0.167851 0.12524,-0.16785 0.12524,-0.471271 0,-0.304713 -0.12524,-0.472563 -0.12524,-0.167851 -0.35377,-0.167851 z m 0,-0.360232 q 0.46481,0 0.72821,0.265978 0.26339,0.265978 0.26339,0.734668 0,0.467398 -0.26339,0.733376 -0.2634,0.265978 -0.72821,0.265978 -0.46353,0 -0.72822,-0.265978 -0.26339,-0.265978 -0.26339,-0.733376 0,-0.46869 0.26339,-0.734668 0.26469,-0.265978 0.72822,-0.265978 z"
           inkscape:connector-curvature="0" />
        <path
           id="path1250"
           style="font-style:normal;font-variant:normal;font-weight:bold;font-stretch:normal;font-family:sans-serif;-inkscape-font-specification:'sans-serif Bold';fill:#0000ff;fill-opacity:1;stroke-width:0.06610716"
           d="m -157.87265,-30.95354 h 0.49709 v 1.155584 q 0,0.238864 0.0775,0.342157 0.0788,0.102001 0.25565,0.102001 0.17818,0 0.25565,-0.102001 0.0788,-0.103293 0.0788,-0.342157 v -1.155584 h 0.4971 v 1.155584 q 0,0.409297 -0.2053,0.609426 -0.20529,0.200129 -0.62621,0.200129 -0.41962,0 -0.62492,-0.200129 -0.20529,-0.200129 -0.20529,-0.609426 z"
           inkscape:connector-curvature="0" />
        <path
           id="path1252"
           style="font-style:normal;font-variant:normal;font-weight:bold;font-stretch:normal;font-family:sans-serif;-inkscape-font-specification:'sans-serif Bold';fill:#0000ff;fill-opacity:1;stroke-width:0.06610716"
           d="m -155.95399,-30.95354 h 1.77663 v 0.375726 h -0.63913 v 1.551969 h -0.49709 v -1.551969 h -0.64041 z"
           inkscape:connector-curvature="0" />
      </g>
      <circle
         r="1.2458302"
         cy="48.978321"
         cx="-174.44978"
         id="circle1465-23"
         style="fill:none;stroke:#ff0000;stroke-width:0.01;stroke-miterlimit:4;stroke-dasharray:none;stroke-opacity:1"
         transform="scale(-1,1)" />
      <circle
         r="1.2458302"
         cy="48.978321"
         cx="-140.69977"
         id="circle1465-7"
         style="fill:none;stroke:#ff0000;stroke-width:0.01;stroke-miterlimit:4;stroke-dasharray:none;stroke-opacity:1"
         transform="scale(-1,1)" />
    </g>
    <g
       id="g1805"
       transform="translate(13.635232,-0.94471476)">
      <path
         id="path1112-3-9"
         d="m 158.18347,71.452596 c 12.14697,0 21.995,9.84637 21.995,21.99598 0,12.147494 -9.84803,21.993884 -21.995,21.993884 -12.14696,0 -21.995,-9.84639 -21.995,-21.993884 0,-12.14961 9.84804,-21.99598 21.995,-21.99598 z m 0,0"
         style="fill:none;stroke:#e3231e;stroke-width:0.01000111;stroke-linecap:butt;stroke-linejoin:miter;stroke-miterlimit:4;stroke-dasharray:none;stroke-opacity:1"
         inkscape:connector-curvature="0" />
      <circle
         r="1.4949962"
         cy="78.833382"
         cx="149.75348"
         id="path1124-5-2"
         style="fill:none;stroke:#ff0000;stroke-width:0.0100076;stroke-miterlimit:4;stroke-dasharray:none;stroke-opacity:1" />
      <circle
         r="1.4949962"
         cy="108.06187"
         cx="149.75381"
         id="path1124-56-2"
         style="fill:none;stroke:#ff0000;stroke-width:0.0100076;stroke-miterlimit:4;stroke-dasharray:none;stroke-opacity:1" />
      <circle
         r="1.4949962"
         cy="108.06174"
         cx="166.62848"
         id="path1124-2-8"
         style="fill:none;stroke:#ff0000;stroke-width:0.0100076;stroke-miterlimit:4;stroke-dasharray:none;stroke-opacity:1" />
      <circle
         r="1.4949962"
         cy="78.833473"
         cx="166.62885"
         id="path1124-1-9"
         style="fill:none;stroke:#ff0000;stroke-width:0.0100076;stroke-miterlimit:4;stroke-dasharray:none;stroke-opacity:1" />
      <circle
         r="1.2458302"
         cy="93.447517"
         cx="-175.06612"
         id="circle1465-73"
         style="fill:none;stroke:#ff0000;stroke-width:0.01;stroke-miterlimit:4;stroke-dasharray:none;stroke-opacity:1"
         transform="scale(-1,1)" />
      <circle
         r="1.2458302"
         cy="93.447517"
         cx="-141.3161"
         id="circle1465-0-6"
         style="fill:none;stroke:#ff0000;stroke-width:0.01;stroke-miterlimit:4;stroke-dasharray:none;stroke-opacity:1"
         transform="scale(-1,1)" />
      <ellipse
         style="fill:none;fill-opacity:1;stroke:#ff0000;stroke-width:0.00957723;stroke-miterlimit:4;stroke-dasharray:none;stroke-opacity:1"
         id="ellipse1795"
         cx="158.18347"
         cy="93.447525"
         rx="11.245213"
         ry="11.245212" />
    </g>
  </g>
</svg>
