<?xml version="1.0" encoding="UTF-8" standalone="no"?>
<!-- Created with Inkscape (http://www.inkscape.org/) -->

<svg
   xmlns:dc="http://purl.org/dc/elements/1.1/"
   xmlns:cc="http://creativecommons.org/ns#"
   xmlns:rdf="http://www.w3.org/1999/02/22-rdf-syntax-ns#"
   xmlns:svg="http://www.w3.org/2000/svg"
   xmlns="http://www.w3.org/2000/svg"
   xmlns:sodipodi="http://sodipodi.sourceforge.net/DTD/sodipodi-0.dtd"
   xmlns:inkscape="http://www.inkscape.org/namespaces/inkscape"
   width="210mm"
   height="297mm"
   viewBox="0 0 210 297"
   version="1.1"
   id="svg2570"
   inkscape:version="0.92.2 5c3e80d, 2017-08-06"
   sodipodi:docname="3mm.svg">
  <defs
     id="defs2564" />
  <sodipodi:namedview
     id="base"
     pagecolor="#ffffff"
     bordercolor="#666666"
     borderopacity="1.0"
     inkscape:pageopacity="0.0"
     inkscape:pageshadow="2"
     inkscape:zoom="0.35"
     inkscape:cx="332.96838"
     inkscape:cy="560"
     inkscape:document-units="mm"
     inkscape:current-layer="layer1"
     showgrid="false"
     inkscape:window-width="636"
     inkscape:window-height="1041"
     inkscape:window-x="1280"
     inkscape:window-y="18"
     inkscape:window-maximized="0" />
  <metadata
     id="metadata2567">
    <rdf:RDF>
      <cc:Work
         rdf:about="">
        <dc:format>image/svg+xml</dc:format>
        <dc:type
           rdf:resource="http://purl.org/dc/dcmitype/StillImage" />
        <dc:title />
      </cc:Work>
    </rdf:RDF>
  </metadata>
  <g
     inkscape:label="Layer 1"
     inkscape:groupmode="layer"
     id="layer1">
    <g
       id="g1349"
       transform="matrix(-1,0,0,1,203.79322,-168.7951)">
      <g
         transform="translate(101.18848,175.7032)"
         id="g2501">
        <path
           inkscape:connector-curvature="0"
           style="fill:none;stroke:#ff0000;stroke-width:0.01;stroke-miterlimit:4;stroke-dasharray:none;stroke-opacity:1"
           d="m 54.603404,1.5357825 v 7.944723 h 2.502173 V 12.969195 H 39.601736 v 7.783486 a 14.244998,14.244997 0 0 1 0.398425,-0.349832 14.244998,14.244997 0 0 1 1.158587,-0.828384 14.244998,14.244997 0 0 1 1.235067,-0.708474 14.244998,14.244997 0 0 1 1.299662,-0.581872 14.244998,14.244997 0 0 1 1.351339,-0.449077 14.244998,14.244997 0 0 1 1.389062,-0.3116 14.244998,14.244997 0 0 1 1.413867,-0.171582 14.244998,14.244997 0 0 1 1.007174,-0.03564 14.244998,14.244997 0 0 1 1.422135,0.0713 14.244998,14.244997 0 0 1 1.408181,0.212381 14.244998,14.244997 0 0 1 1.379763,0.352452 14.244998,14.244997 0 0 1 1.337386,0.488341 14.244998,14.244997 0 0 1 1.282092,0.619072 14.244998,14.244997 0 0 1 1.213879,0.74467 14.244998,14.244997 0 0 1 0.207222,0.157612 V 43.15183 a 14.244997,14.244996 0 0 1 -0.553972,0.395843 14.244997,14.244996 0 0 1 -1.235067,0.708501 14.244997,14.244996 0 0 1 -1.299662,0.581872 14.244997,14.244996 0 0 1 -1.351338,0.449077 14.244997,14.244996 0 0 1 -1.389063,0.3116 14.244997,14.244996 0 0 1 -1.413867,0.171556 14.244997,14.244996 0 0 1 -1.007689,0.03567 14.244997,14.244996 0 0 1 -1.422136,-0.0708 14.244997,14.244996 0 0 1 -1.407665,-0.21291 14.244997,14.244996 0 0 1 -1.379762,-0.352425 14.244997,14.244996 0 0 1 -1.337385,-0.488342 14.244997,14.244996 0 0 1 -1.282094,-0.619072 14.244997,14.244996 0 0 1 -1.213879,-0.74414 14.244997,14.244996 0 0 1 -1.133782,-0.861986 14.244997,14.244996 0 0 1 -1.041797,-0.970465 14.244997,14.244996 0 0 1 -0.939993,-1.069711 14.244997,14.244996 0 0 1 -0.827857,-1.158055 14.244997,14.244996 0 0 1 -0.708483,-1.235604 14.244997,14.244996 0 0 1 -0.581877,-1.29966 14.244997,14.244996 0 0 1 -0.449067,-1.351332 14.244997,14.244996 0 0 1 -0.182935,-0.814944 h -8.451681 v 20.53465 H 57.105577 62.09597 V 36.7786 26.318774 9.4805055 1.5357825 Z"
           id="path2202" />
        <path
           id="path1143-2-4"
           d="m 31.950858,38.78965 c 0,0.82617 -0.670883,1.49498 -1.495002,1.49498 -0.826165,0 -1.494981,-0.66881 -1.494981,-1.49498 0,-0.8262 0.668816,-1.495 1.494981,-1.495 0.824119,0 1.495002,0.6688 1.495002,1.495 z m 0,0"
           style="fill:none;stroke:#e3231e;stroke-width:0.01001609;stroke-linecap:butt;stroke-linejoin:miter;stroke-miterlimit:4;stroke-dasharray:none;stroke-opacity:1"
           inkscape:connector-curvature="0" />
        <path
           id="path1143-7-0"
           d="m 44.208368,51.32183 c 0,0.82617 -0.670883,1.49498 -1.495002,1.49498 -0.826165,0 -1.494982,-0.66881 -1.494982,-1.49498 0,-0.8262 0.668817,-1.495 1.494982,-1.495 0.824119,0 1.495002,0.6688 1.495002,1.495 z m 0,0"
           style="fill:none;stroke:#e3231e;stroke-width:0.01001609;stroke-linecap:butt;stroke-linejoin:miter;stroke-miterlimit:4;stroke-dasharray:none;stroke-opacity:1"
           inkscape:connector-curvature="0" />
        <path
           id="path1143-0-3"
           d="m 56.491927,51.32184 c 0,0.82617 -0.670882,1.49498 -1.495001,1.49498 -0.826164,0 -1.494981,-0.66881 -1.494981,-1.49498 0,-0.8262 0.668817,-1.495 1.494981,-1.495 0.824119,0 1.495001,0.6688 1.495001,1.495 z m 0,0"
           style="fill:none;stroke:#e3231e;stroke-width:0.01001609;stroke-linecap:butt;stroke-linejoin:miter;stroke-miterlimit:4;stroke-dasharray:none;stroke-opacity:1"
           inkscape:connector-curvature="0" />
        <path
           id="path1143-9-9"
           d="m 60.876401,45.00593 c 0,0.82617 -0.670882,1.49498 -1.495001,1.49498 -0.826164,0 -1.494983,-0.66881 -1.494983,-1.49498 0,-0.8262 0.668819,-1.495 1.494983,-1.495 0.824119,0 1.495001,0.6688 1.495001,1.495 z m 0,0"
           style="fill:none;stroke:#e3231e;stroke-width:0.01001609;stroke-linecap:butt;stroke-linejoin:miter;stroke-miterlimit:4;stroke-dasharray:none;stroke-opacity:1"
           inkscape:connector-curvature="0" />
        <path
           id="path1143-3-1"
           d="m 59.940978,16.42641 c 0,0.82617 -0.670883,1.49498 -1.495002,1.49498 -0.826164,0 -1.494981,-0.66881 -1.494981,-1.49498 0,-0.8262 0.668817,-1.495 1.494981,-1.495 0.824119,0 1.495002,0.6688 1.495002,1.495 z m 0,0"
           style="fill:none;stroke:#e3231e;stroke-width:0.01001609;stroke-linecap:butt;stroke-linejoin:miter;stroke-miterlimit:4;stroke-dasharray:none;stroke-opacity:1"
           inkscape:connector-curvature="0" />
        <path
           id="path1143-6-9"
           d="m 59.940978,5.37061 c 0,0.82617 -0.670883,1.49498 -1.495002,1.49498 -0.826164,0 -1.494981,-0.66881 -1.494981,-1.49498 0,-0.8262 0.668817,-1.495 1.494981,-1.495 0.824119,0 1.495002,0.6688 1.495002,1.495 z m 0,0"
           style="fill:none;stroke:#e3231e;stroke-width:0.01001609;stroke-linecap:butt;stroke-linejoin:miter;stroke-miterlimit:4;stroke-dasharray:none;stroke-opacity:1"
           inkscape:connector-curvature="0" />
      </g>
      <g
         transform="rotate(90,-8.423755,165.23367)"
         id="g2492">
        <path
           inkscape:connector-curvature="0"
           style="fill:none;stroke:#ff0000;stroke-width:0.01;stroke-miterlimit:4;stroke-dasharray:none;stroke-opacity:1"
           d="M 26.494526,1.5357825 V 28.565642 H 34.61031 V 12.969195 H 31.116466 V 9.4805055 h 13.502018 v -7.944723 z"
           id="path2194" />
        <path
           id="path1143-1-3"
           d="m 31.950858,24.33272 c 0,0.82617 -0.670883,1.49498 -1.495002,1.49498 -0.826165,0 -1.494981,-0.66881 -1.494981,-1.49498 0,-0.8262 0.668816,-1.495 1.494981,-1.495 0.824119,0 1.495002,0.6688 1.495002,1.495 z m 0,0"
           style="fill:none;stroke:#e3231e;stroke-width:0.01001609;stroke-linecap:butt;stroke-linejoin:miter;stroke-miterlimit:4;stroke-dasharray:none;stroke-opacity:1"
           inkscape:connector-curvature="0" />
        <path
           inkscape:connector-curvature="0"
           style="fill:none;stroke:#e3231e;stroke-width:0.01001609;stroke-linecap:butt;stroke-linejoin:miter;stroke-miterlimit:4;stroke-dasharray:none;stroke-opacity:1"
           d="m 39.28046,5.37061 c 0,0.82617 0.670883,1.49498 1.495002,1.49498 0.826165,0 1.494982,-0.66881 1.494982,-1.49498 0,-0.8262 -0.668817,-1.495 -1.494982,-1.495 -0.824119,0 -1.495002,0.6688 -1.495002,1.495 z m 0,0"
           id="path1198-69" />
      </g>
    </g>
    <g
       id="g1319"
       transform="translate(-83.325758,-226.5201)">
      <path
         id="path1188-9-7"
         d="M 112.70707,261.98507 H 97.015685 v -3.99 h 15.691385 z m 0,0"
         style="fill:none;stroke:#e3231e;stroke-width:0.00999855;stroke-linecap:butt;stroke-linejoin:miter;stroke-miterlimit:4;stroke-dasharray:none;stroke-opacity:1"
         inkscape:connector-curvature="0" />
      <path
         id="path1204-3-4"
         d="m 101.76647,274.94299 h 6.1898 v -6.18984 h -6.1898 z m 0,0"
         style="fill:none;stroke:#e3231e;stroke-width:0.01020668;stroke-linecap:butt;stroke-linejoin:miter;stroke-miterlimit:4;stroke-opacity:1"
         inkscape:connector-curvature="0" />
      <rect
         y="234.964"
         x="86.6931"
         height="53.555332"
         width="35.601765"
         id="rect1391-6-6-5"
         style="fill:none;stroke:#ff0000;stroke-width:0.01;stroke-miterlimit:4;stroke-dasharray:none;stroke-opacity:1" />
      <path
         inkscape:connector-curvature="0"
         style="fill:none;stroke:#e3231e;stroke-width:0.01001609;stroke-linecap:butt;stroke-linejoin:miter;stroke-miterlimit:4;stroke-dasharray:none;stroke-opacity:1"
         d="m 92.149656,257.76071 c 0,0.82617 -0.670882,1.49498 -1.495002,1.49498 -0.826164,0 -1.494982,-0.66881 -1.494982,-1.49498 0,-0.82619 0.668818,-1.495 1.494982,-1.495 0.82412,0 1.495002,0.66881 1.495002,1.495 z m 0,0"
         id="path1143-1-0" />
      <path
         inkscape:connector-curvature="0"
         style="fill:none;stroke:#e3231e;stroke-width:0.01001609;stroke-linecap:butt;stroke-linejoin:miter;stroke-miterlimit:4;stroke-dasharray:none;stroke-opacity:1"
         d="m 92.149656,272.21764 c 0,0.82617 -0.670882,1.49498 -1.495002,1.49498 -0.826164,0 -1.494982,-0.66881 -1.494982,-1.49498 0,-0.8262 0.668818,-1.495 1.494982,-1.495 0.82412,0 1.495002,0.6688 1.495002,1.495 z m 0,0"
         id="path1143-2-7" />
      <path
         inkscape:connector-curvature="0"
         style="fill:none;stroke:#e3231e;stroke-width:0.01001609;stroke-linecap:butt;stroke-linejoin:miter;stroke-miterlimit:4;stroke-dasharray:none;stroke-opacity:1"
         d="m 104.40717,284.74983 c 0,0.82617 -0.67089,1.49498 -1.49501,1.49498 -0.82616,0 -1.49498,-0.66881 -1.49498,-1.49498 0,-0.82619 0.66882,-1.495 1.49498,-1.495 0.82412,0 1.49501,0.66881 1.49501,1.495 z m 0,0"
         id="path1143-7-8" />
      <path
         inkscape:connector-curvature="0"
         style="fill:none;stroke:#e3231e;stroke-width:0.01001609;stroke-linecap:butt;stroke-linejoin:miter;stroke-miterlimit:4;stroke-dasharray:none;stroke-opacity:1"
         d="m 116.69072,284.74983 c 0,0.82617 -0.67088,1.49499 -1.495,1.49499 -0.82616,0 -1.49498,-0.66882 -1.49498,-1.49499 0,-0.8262 0.66882,-1.495 1.49498,-1.495 0.82412,0 1.495,0.6688 1.495,1.495 z m 0,0"
         id="path1143-0-6" />
      <path
         inkscape:connector-curvature="0"
         style="fill:none;stroke:#e3231e;stroke-width:0.01001609;stroke-linecap:butt;stroke-linejoin:miter;stroke-miterlimit:4;stroke-dasharray:none;stroke-opacity:1"
         d="m 121.0752,278.43392 c 0,0.82617 -0.67088,1.49498 -1.495,1.49498 -0.82617,0 -1.49499,-0.66881 -1.49499,-1.49498 0,-0.8262 0.66882,-1.495 1.49499,-1.495 0.82412,0 1.495,0.6688 1.495,1.495 z m 0,0"
         id="path1143-9-8" />
      <path
         inkscape:connector-curvature="0"
         style="fill:none;stroke:#e3231e;stroke-width:0.01001609;stroke-linecap:butt;stroke-linejoin:miter;stroke-miterlimit:4;stroke-dasharray:none;stroke-opacity:1"
         d="m 120.13978,249.8544 c 0,0.82617 -0.67089,1.49498 -1.49501,1.49498 -0.82616,0 -1.49498,-0.66881 -1.49498,-1.49498 0,-0.8262 0.66882,-1.495 1.49498,-1.495 0.82412,0 1.49501,0.6688 1.49501,1.495 z m 0,0"
         id="path1143-3-8" />
      <path
         inkscape:connector-curvature="0"
         style="fill:none;stroke:#e3231e;stroke-width:0.01001609;stroke-linecap:butt;stroke-linejoin:miter;stroke-miterlimit:4;stroke-dasharray:none;stroke-opacity:1"
         d="m 120.13978,238.7986 c 0,0.82617 -0.67089,1.49498 -1.49501,1.49498 -0.82616,0 -1.49498,-0.66881 -1.49498,-1.49498 0,-0.8262 0.66882,-1.495 1.49498,-1.495 0.82412,0 1.49501,0.6688 1.49501,1.495 z m 0,0"
         id="path1143-6-4" />
      <path
         id="path1198-3"
         d="m 99.479259,238.7986 c 0,0.82617 0.670881,1.49498 1.495001,1.49498 0.82616,0 1.49498,-0.66881 1.49498,-1.49498 0,-0.8262 -0.66882,-1.495 -1.49498,-1.495 -0.82412,0 -1.495001,0.6688 -1.495001,1.495 z m 0,0"
         style="fill:none;stroke:#e3231e;stroke-width:0.01001609;stroke-linecap:butt;stroke-linejoin:miter;stroke-miterlimit:4;stroke-dasharray:none;stroke-opacity:1"
         inkscape:connector-curvature="0" />
      <g
         id="text4740"
         style="font-style:normal;font-weight:normal;font-size:4.90960693px;line-height:1.25;font-family:sans-serif;letter-spacing:0px;word-spacing:0px;fill:#0000ff;fill-opacity:1;stroke:none;stroke-width:0.12274018"
         aria-label="+">
        <path
           id="path4788"
           style="fill:#0000ff;fill-opacity:1;stroke-width:0.12274018"
           d="m 115.45008,258.45102 v 1.33528 h 1.33528 v 0.40753 h -1.33528 v 1.33528 h -0.40275 v -1.33528 h -1.33527 v -0.40753 h 1.33527 v -1.33528 z"
           inkscape:connector-curvature="0" />
      </g>
      <g
         id="text4740-7"
         style="font-style:normal;font-weight:normal;font-size:4.90960741px;line-height:1.25;font-family:sans-serif;letter-spacing:0px;word-spacing:0px;fill:#0000ff;fill-opacity:1;stroke:none;stroke-width:0.12274018"
         transform="rotate(90)"
         aria-label="−">
        <path
           id="path4785"
           style="fill:#0000ff;fill-opacity:1;stroke-width:0.12274018"
           d="m 258.45343,-94.677805 h 3.0733 v 0.407536 h -3.0733 z"
           inkscape:connector-curvature="0" />
      </g>
      <g
         id="text1191"
         style="font-style:normal;font-weight:normal;font-size:2.74346948px;line-height:1.25;font-family:sans-serif;letter-spacing:0px;word-spacing:0px;fill:#0000ff;fill-opacity:1;stroke:none;stroke-width:0.06858674"
         transform="rotate(90)"
         aria-label="PWR">
        <path
           id="path1271"
           style="font-style:normal;font-variant:normal;font-weight:bold;font-stretch:normal;font-family:sans-serif;-inkscape-font-specification:'sans-serif Bold';fill:#0000ff;fill-opacity:1;stroke-width:0.06858674"
           d="m 261.56553,-89.68811 h 0.856 q 0.38178,0 0.5854,0.170127 0.20495,0.168788 0.20495,0.48225 0,0.314803 -0.20495,0.48493 -0.20362,0.168788 -0.5854,0.168788 h -0.34026 v 0.693905 h -0.51574 z m 0.51574,0.373744 v 0.558607 h 0.28533 q 0.15004,0 0.23175,-0.07234 0.0817,-0.07368 0.0817,-0.207636 0,-0.133958 -0.0817,-0.206296 -0.0817,-0.07234 -0.23175,-0.07234 z"
           inkscape:connector-curvature="0" />
        <path
           id="path1273"
           style="font-style:normal;font-variant:normal;font-weight:bold;font-stretch:normal;font-family:sans-serif;-inkscape-font-specification:'sans-serif Bold';fill:#0000ff;fill-opacity:1;stroke-width:0.06858674"
           d="m 263.40478,-89.68811 h 0.49431 l 0.34561,1.453449 0.34294,-1.453449 h 0.49698 l 0.34293,1.453449 0.34562,-1.453449 h 0.49029 l -0.47154,2 h -0.59477 l -0.36303,-1.520429 -0.35901,1.520429 h -0.59478 z"
           inkscape:connector-curvature="0" />
        <path
           id="path1275"
           style="font-style:normal;font-variant:normal;font-weight:bold;font-stretch:normal;font-family:sans-serif;-inkscape-font-specification:'sans-serif Bold';fill:#0000ff;fill-opacity:1;stroke-width:0.06858674"
           d="m 267.33512,-88.801305 q 0.16209,0 0.23175,-0.06028 0.071,-0.06028 0.071,-0.198258 0,-0.136638 -0.071,-0.195579 -0.0697,-0.05894 -0.23175,-0.05894 h -0.21701 v 0.513061 z m -0.21701,0.356329 v 0.756866 h -0.51574 v -2 h 0.78768 q 0.39517,0 0.5787,0.132619 0.18486,0.132618 0.18486,0.41929 0,0.198258 -0.0965,0.325519 -0.0951,0.12726 -0.28801,0.187542 0.10583,0.02411 0.18888,0.109845 0.0844,0.08439 0.17013,0.257201 l 0.27997,0.567984 h -0.54923 l -0.2438,-0.496986 q -0.0737,-0.150034 -0.15004,-0.204957 -0.075,-0.05492 -0.20093,-0.05492 z"
           inkscape:connector-curvature="0" />
      </g>
      <g
         id="text1191-5"
         style="font-style:normal;font-weight:normal;font-size:2.74346948px;line-height:1.25;font-family:sans-serif;letter-spacing:0px;word-spacing:0px;fill:#0000ff;fill-opacity:1;stroke:none;stroke-width:0.06858674"
         transform="rotate(-90)"
         aria-label="DEV">
        <path
           id="path1278"
           style="font-style:normal;font-variant:normal;font-weight:bold;font-stretch:normal;font-family:sans-serif;-inkscape-font-specification:'sans-serif Bold';fill:#0000ff;fill-opacity:1;stroke-width:0.06858674"
           d="m -267.47647,119.68969 v 1.22036 h 0.18487 q 0.31614,0 0.48225,-0.15673 0.16744,-0.15673 0.16744,-0.45546 0,-0.29738 -0.1661,-0.45278 -0.16611,-0.15539 -0.48359,-0.15539 z m -0.51574,-0.38982 h 0.54387 q 0.45546,0 0.67783,0.0656 0.22371,0.0643 0.38313,0.21969 0.14065,0.1353 0.20897,0.31213 0.0683,0.17682 0.0683,0.40053 0,0.22639 -0.0683,0.40456 -0.0683,0.17682 -0.20897,0.31212 -0.16075,0.15539 -0.38581,0.22103 -0.22505,0.0643 -0.67515,0.0643 h -0.54387 z"
           inkscape:connector-curvature="0" />
        <path
           id="path1280"
           style="font-style:normal;font-variant:normal;font-weight:bold;font-stretch:normal;font-family:sans-serif;-inkscape-font-specification:'sans-serif Bold';fill:#0000ff;fill-opacity:1;stroke-width:0.06858674"
           d="m -265.71491,119.29987 h 1.39183 v 0.38982 h -0.87609 v 0.37241 h 0.82384 v 0.38982 h -0.82384 v 0.45813 h 0.90556 v 0.38982 h -1.4213 z"
           inkscape:connector-curvature="0" />
        <path
           id="path1282"
           style="font-style:normal;font-variant:normal;font-weight:bold;font-stretch:normal;font-family:sans-serif;-inkscape-font-specification:'sans-serif Bold';fill:#0000ff;fill-opacity:1;stroke-width:0.06858674"
           d="m -264.07794,119.29987 h 0.51842 l 0.53047,1.47623 0.52914,-1.47623 h 0.51842 l -0.74079,2 h -0.61487 z"
           inkscape:connector-curvature="0" />
      </g>
      <g
         id="text1191-5-2"
         style="font-style:normal;font-weight:normal;font-size:2.74346948px;line-height:1.25;font-family:sans-serif;letter-spacing:0px;word-spacing:0px;fill:#0000ff;fill-opacity:1;stroke:none;stroke-width:0.06858674"
         aria-label="OUT">
        <path
           id="path1285"
           style="font-style:normal;font-variant:normal;font-weight:bold;font-stretch:normal;font-family:sans-serif;-inkscape-font-specification:'sans-serif Bold';fill:#0000ff;fill-opacity:1;stroke-width:0.06858674"
           d="m 106.94277,285.86046 q -0.23577,0 -0.36571,0.17415 -0.12994,0.17415 -0.12994,0.49029 0,0.3148 0.12994,0.48895 0.12994,0.17414 0.36571,0.17414 0.2371,0 0.36704,-0.17414 0.12994,-0.17415 0.12994,-0.48895 0,-0.31614 -0.12994,-0.49029 -0.12994,-0.17415 -0.36704,-0.17415 z m 0,-0.37374 q 0.48225,0 0.75552,0.27595 0.27328,0.27596 0.27328,0.76223 0,0.48493 -0.27328,0.76088 -0.27327,0.27596 -0.75552,0.27596 -0.48091,0 -0.75553,-0.27596 -0.27327,-0.27595 -0.27327,-0.76088 0,-0.48627 0.27327,-0.76223 0.27462,-0.27595 0.75553,-0.27595 z"
           inkscape:connector-curvature="0" />
        <path
           id="path1287"
           style="font-style:normal;font-variant:normal;font-weight:bold;font-stretch:normal;font-family:sans-serif;-inkscape-font-specification:'sans-serif Bold';fill:#0000ff;fill-opacity:1;stroke-width:0.06858674"
           d="m 108.36005,285.52289 h 0.51574 v 1.19893 q 0,0.24782 0.0804,0.35499 0.0817,0.10582 0.26524,0.10582 0.18486,0 0.26524,-0.10582 0.0817,-0.10717 0.0817,-0.35499 v -1.19893 h 0.51574 v 1.19893 q 0,0.42464 -0.21299,0.63228 -0.21299,0.20764 -0.6497,0.20764 -0.43536,0 -0.64836,-0.20764 -0.21299,-0.20764 -0.21299,-0.63228 z"
           inkscape:connector-curvature="0" />
        <path
           id="path1289"
           style="font-style:normal;font-variant:normal;font-weight:bold;font-stretch:normal;font-family:sans-serif;-inkscape-font-specification:'sans-serif Bold';fill:#0000ff;fill-opacity:1;stroke-width:0.06858674"
           d="m 110.35067,285.52289 h 1.84327 v 0.38982 h -0.6631 v 1.61018 h -0.51574 v -1.61018 h -0.66443 z"
           inkscape:connector-curvature="0" />
      </g>
    </g>
    <g
       id="g1502"
       transform="rotate(90,250.63555,92.49397)">
      <path
         style="fill:none;stroke:#e3231e;stroke-width:0.01000111;stroke-linecap:butt;stroke-linejoin:miter;stroke-miterlimit:4;stroke-dasharray:none;stroke-opacity:1"
         d="m 161.96164,245.04818 c 10.97282,1.23836 19.50423,10.53953 19.50423,21.8457 0,11.30422 -8.53141,20.6053 -19.50423,21.84363 v -6.98562 h -0.98599 v -1.99265 h 0.98599 v -1.39836 c 0.66097,-0.14298 1.30112,-0.34136 1.91564,-0.59015 0.61452,-0.24882 1.20341,-0.54802 1.76114,-0.89245 0.55772,-0.34441 1.08449,-0.73394 1.57509,-1.16375 0.4906,-0.42982 0.94492,-0.90007 1.35806,-1.40508 0.41315,-0.50504 0.78517,-1.04488 1.11053,-1.61489 0.32536,-0.57002 0.60423,-1.1699 0.83147,-1.79472 0.22723,-0.62481 0.40263,-1.27467 0.52141,-1.94407 0.11879,-0.66942 0.18087,-1.35862 0.18087,-2.06241 0,-0.70392 -0.0621,-1.39342 -0.18087,-2.06292 -0.11878,-0.6695 -0.29418,-1.31917 -0.52141,-1.94407 -0.22724,-0.62489 -0.50611,-1.22466 -0.83147,-1.79472 -0.32536,-0.57008 -0.69738,-1.11035 -1.11053,-1.61541 -0.41314,-0.50506 -0.86746,-0.97524 -1.35806,-1.40508 -0.4906,-0.42984 -1.01737,-0.81933 -1.57509,-1.16375 -0.55773,-0.34443 -1.14662,-0.64364 -1.76114,-0.89245 -0.61452,-0.24881 -1.25467,-0.44716 -1.91564,-0.59015 v -1.39888 h -0.98599 v -1.99212 h 0.98599 z"
         id="path1092"
         inkscape:connector-curvature="0" />
      <circle
         transform="scale(-1,1)"
         style="fill:none;stroke:#ff0000;stroke-width:0.0100076;stroke-miterlimit:4;stroke-dasharray:none;stroke-opacity:1"
         id="circle1094"
         cx="-167.90089"
         cy="252.27858"
         r="1.4949962" />
      <circle
         transform="scale(-1,1)"
         style="fill:none;stroke:#ff0000;stroke-width:0.0100076;stroke-miterlimit:4;stroke-dasharray:none;stroke-opacity:1"
         id="circle1098"
         cx="-167.90054"
         cy="281.50705"
         r="1.4949962" />
      <circle
         r="1.2458302"
         cy="266.89273"
         cx="-176.33826"
         id="circle1465-9"
         style="fill:none;stroke:#ff0000;stroke-width:0.01;stroke-miterlimit:4;stroke-dasharray:none;stroke-opacity:1"
         transform="scale(-1,1)" />
    </g>
    <g
       id="g1941"
       transform="translate(-47.90529,-221.80642)">
      <path
         id="path943"
         d="m 167.15276,240.11576 c 10.97282,1.23835 19.50423,10.53953 19.50423,21.8457 0,11.30422 -8.53141,20.6053 -19.50423,21.84362 v -6.98561 h -0.98599 v -1.99265 h 0.98599 v -1.39836 c 0.66097,-0.14298 1.30112,-0.34137 1.91564,-0.59015 0.61452,-0.24882 1.20341,-0.54802 1.76114,-0.89245 0.55772,-0.34441 1.08449,-0.73394 1.57509,-1.16375 0.4906,-0.42982 0.94492,-0.90007 1.35806,-1.40508 0.41315,-0.50504 0.78517,-1.04488 1.11053,-1.61489 0.32536,-0.57002 0.60423,-1.1699 0.83147,-1.79473 0.22723,-0.6248 0.40263,-1.27466 0.52141,-1.94406 0.11879,-0.66942 0.18087,-1.35862 0.18087,-2.06241 0,-0.70392 -0.0621,-1.39342 -0.18087,-2.06292 -0.11878,-0.6695 -0.29418,-1.31917 -0.52141,-1.94407 -0.22724,-0.62489 -0.50611,-1.22466 -0.83147,-1.79472 -0.32536,-0.57008 -0.69738,-1.11035 -1.11053,-1.61541 -0.41314,-0.50506 -0.86746,-0.97524 -1.35806,-1.40508 -0.4906,-0.42984 -1.01737,-0.81933 -1.57509,-1.16375 -0.55773,-0.34443 -1.14662,-0.64364 -1.76114,-0.89245 -0.61452,-0.24881 -1.25467,-0.44716 -1.91564,-0.59015 v -1.39888 h -0.98599 v -1.99213 h 0.98599 z"
         style="fill:none;stroke:#e3231e;stroke-width:0.01000111;stroke-linecap:butt;stroke-linejoin:miter;stroke-miterlimit:4;stroke-dasharray:none;stroke-opacity:1"
         inkscape:connector-curvature="0" />
      <circle
         transform="scale(-1,1)"
         r="1.4949962"
         cy="247.34616"
         cx="-173.09201"
         id="path1124"
         style="fill:none;stroke:#ff0000;stroke-width:0.0100076;stroke-miterlimit:4;stroke-dasharray:none;stroke-opacity:1" />
      <circle
         transform="scale(-1,1)"
         r="1.4949962"
         cy="276.57462"
         cx="-173.09166"
         id="path1124-7"
         style="fill:none;stroke:#ff0000;stroke-width:0.0100076;stroke-miterlimit:4;stroke-dasharray:none;stroke-opacity:1" />
      <circle
         r="1.2458302"
         cy="261.9603"
         cx="-181.52937"
         id="circle1465-2"
         style="fill:none;stroke:#ff0000;stroke-width:0.01;stroke-miterlimit:4;stroke-dasharray:none;stroke-opacity:1"
         transform="scale(-1,1)" />
    </g>
    <g
       id="g1921"
       transform="translate(-29.02991,-160.17197)">
      <path
         id="path1112-3-9-1"
         d="m 128.22442,178.18136 c 12.14697,0 21.995,9.84637 21.995,21.99598 0,12.14749 -9.84803,21.99388 -21.995,21.99388 -12.14696,0 -21.995,-9.84639 -21.995,-21.99388 0,-12.14961 9.84804,-21.99598 21.995,-21.99598 z m 0,0"
         style="fill:none;stroke:#e3231e;stroke-width:0.01000111;stroke-linecap:butt;stroke-linejoin:miter;stroke-miterlimit:4;stroke-dasharray:none;stroke-opacity:1"
         inkscape:connector-curvature="0" />
      <circle
         r="1.4949962"
         cy="185.56215"
         cx="119.79443"
         id="path1124-5-2-5"
         style="fill:none;stroke:#ff0000;stroke-width:0.0100076;stroke-miterlimit:4;stroke-dasharray:none;stroke-opacity:1" />
      <circle
         r="1.4949962"
         cy="214.79063"
         cx="119.79476"
         id="path1124-56-2-5"
         style="fill:none;stroke:#ff0000;stroke-width:0.0100076;stroke-miterlimit:4;stroke-dasharray:none;stroke-opacity:1" />
      <circle
         r="1.4949962"
         cy="214.7905"
         cx="136.66943"
         id="path1124-2-8-4"
         style="fill:none;stroke:#ff0000;stroke-width:0.0100076;stroke-miterlimit:4;stroke-dasharray:none;stroke-opacity:1" />
      <circle
         r="1.4949962"
         cy="185.56224"
         cx="136.6698"
         id="path1124-1-9-7"
         style="fill:none;stroke:#ff0000;stroke-width:0.0100076;stroke-miterlimit:4;stroke-dasharray:none;stroke-opacity:1" />
      <circle
         r="1.2458302"
         cy="200.17628"
         cx="-145.10707"
         id="circle1465-73-6"
         style="fill:none;stroke:#ff0000;stroke-width:0.01;stroke-miterlimit:4;stroke-dasharray:none;stroke-opacity:1"
         transform="scale(-1,1)" />
      <circle
         r="1.2458302"
         cy="200.17628"
         cx="-111.35705"
         id="circle1465-0-6-5"
         style="fill:none;stroke:#ff0000;stroke-width:0.01;stroke-miterlimit:4;stroke-dasharray:none;stroke-opacity:1"
         transform="scale(-1,1)" />
      <ellipse
         ry="1.9949856"
         rx="1.9949855"
         cy="-3.3796468"
         cx="-233.09489"
         id="ellipse1732"
         style="fill:none;fill-opacity:1;stroke:#ff0000;stroke-width:0.01002886;stroke-miterlimit:4;stroke-dasharray:none;stroke-opacity:1"
         transform="matrix(-0.5,-0.8660254,-0.8660254,0.5,0,0)" />
      <ellipse
         transform="rotate(-60)"
         style="fill:none;fill-opacity:1;stroke:#ff0000;stroke-width:0.01002886;stroke-miterlimit:4;stroke-dasharray:none;stroke-opacity:1"
         id="ellipse1873"
         cx="-104.87047"
         cy="218.71158"
         rx="1.9949855"
         ry="1.9949856" />
      <ellipse
         transform="matrix(0.5,-0.8660254,-0.8660254,-0.5,0,0)"
         style="fill:none;fill-opacity:1;stroke:#ff0000;stroke-width:0.01002886;stroke-miterlimit:4;stroke-dasharray:none;stroke-opacity:1"
         id="ellipse1887"
         cx="-104.87046"
         cy="-203.55592"
         rx="1.9949855"
         ry="1.9949856" />
      <ellipse
         ry="1.9949856"
         rx="1.9949855"
         cy="207.7541"
         cx="132.59949"
         id="ellipse1889"
         style="fill:none;fill-opacity:1;stroke:#ff0000;stroke-width:0.01002886;stroke-miterlimit:4;stroke-dasharray:none;stroke-opacity:1" />
      <ellipse
         ry="1.9949856"
         rx="1.9949855"
         cy="-192.59851"
         cx="132.59929"
         id="ellipse1893"
         style="fill:none;fill-opacity:1;stroke:#ff0000;stroke-width:0.01002886;stroke-miterlimit:4;stroke-dasharray:none;stroke-opacity:1"
         transform="scale(1,-1)" />
      <ellipse
         transform="rotate(60)"
         style="fill:none;fill-opacity:1;stroke:#ff0000;stroke-width:0.01002886;stroke-miterlimit:4;stroke-dasharray:none;stroke-opacity:1"
         id="ellipse1895"
         cx="241.84497"
         cy="-3.3794386"
         rx="1.9949855"
         ry="1.9949856" />
      <ellipse
         transform="scale(1,-1)"
         style="fill:none;fill-opacity:1;stroke:#ff0000;stroke-width:0.01002886;stroke-miterlimit:4;stroke-dasharray:none;stroke-opacity:1"
         id="ellipse1905"
         cx="128.22443"
         cy="-200.17628"
         rx="1.9949855"
         ry="1.9949856" />
    </g>
  </g>
</svg>
